<?xml version="1.0" encoding="UTF-8"?>
<svg width="52px" height="13px" viewBox="0 0 52 13" version="1.1" xmlns="http://www.w3.org/2000/svg" xmlns:xlink="http://www.w3.org/1999/xlink">
    <!-- Generator: Sketch 52.4 (67378) - http://www.bohemiancoding.com/sketch -->
    <title>codeia-LogoText-white-01</title>
    <desc>Created with Sketch.</desc>
    <defs>
        <polygon id="path-1" points="0 0.0143056769 52 0.0143056769 52 12.9965939 0 12.9965939"></polygon>
    </defs>
    <g id="Page-1" stroke="none" stroke-width="1" fill="none" fill-rule="evenodd">
        <g id="Codeia---404-Error" transform="translate(-1280.000000, -31.000000)">
            <g id="codeia-LogoText-white-01" transform="translate(1280.000000, 31.000000)">
                <g id="Group-7">
                    <mask id="mask-2" fill="white">
                        <use xlink:href="#path-1"></use>
                    </mask>
                    <g id="Clip-2"></g>
                    <path d="M4.69773778,12.9982402 C1.64227556,12.9982402 0.0763822222,11.2720786 0,7.85722271 C0,4.46115721 1.54676889,2.75372926 4.65954667,2.69735808 C7.10389333,2.69735808 8.55521333,3.76699127 8.99444,5.92459389 L6.22544,5.92459389 C5.91991111,5.24921834 5.38517778,4.89265502 4.58310667,4.89265502 C3.24641778,4.89265502 2.57804444,5.88706987 2.57804444,7.85722271 C2.57804444,9.82737555 3.28460889,10.8216769 4.69773778,10.803 C5.28972889,10.803 5.80528,10.558952 6.22544,10.0901004 C6.47371111,9.8460524 6.76017333,9.73342358 7.08482667,9.73342358 L8.99444,9.73342358 C8.53614667,11.7598908 7.04663556,13.0546114 4.69773778,12.9982402" id="Fill-1" fill="#FFFFFE" mask="url(#mask-2)"></path>
                    <path d="M12.5348311,7.85722271 C12.5540133,9.78973799 13.2223289,10.7653624 14.5208844,10.7653624 C15.81944,10.7653624 16.4687467,9.75232751 16.4878133,7.78217467 C16.4878133,5.84954585 15.8385644,4.89265502 14.5400667,4.89265502 C13.2032044,4.89265502 12.5348311,5.88706987 12.5348311,7.85722271 Z M19.1422978,7.85722271 C19.1422978,11.2720786 17.5954133,12.9982402 14.5400667,12.9982402 C11.4845467,12.9982402 9.95684444,11.2720786 9.95684444,7.85722271 C9.95684444,4.40484279 11.4845467,2.69735808 14.5400667,2.69735808 C17.5954133,2.69735808 19.1422978,4.40484279 19.1422978,7.85722271 Z" id="Fill-3" fill="#FFFFFE" mask="url(#mask-2)"></path>
                    <path d="M22.7209378,7.78217467 C22.7018133,9.78973799 23.3893111,10.803 24.8405733,10.803 C26.2919511,10.803 27.01764,9.78973799 27.01764,7.78217467 C26.9603244,5.86839301 26.2538178,4.93017904 24.87888,4.93017904 C23.5038844,4.93017904 22.79732,5.86839301 22.7209378,7.78217467 Z M29.5383689,1.27144541 L29.5383689,8.47634061 C29.5383689,11.4598122 27.9534089,12.9419258 24.8023822,12.9232489 C21.6706533,12.8668777 20.10476,11.1970873 20.10476,7.89480349 C20.10476,4.51735808 21.4414489,2.79119651 24.1340667,2.69735808 C25.3944311,2.69735808 26.3683333,3.20401747 27.01764,4.23595633 L27.01764,0.0143056769 L28.2780044,0.0143056769 C28.96556,0.0143056769 29.5383689,0.595956332 29.5383689,1.27144541 Z" id="Fill-4" fill="#FFFFFE" mask="url(#mask-2)"></path>
                    <path d="M41.2978222,3.07441485 C42.1189022,3.07441485 42.5199956,3.46838865 42.5199956,4.27524017 L42.5199956,13 L39.9801422,13 L39.9801422,3.07441485 L41.2978222,3.07441485 Z M41.2978222,0.0143056769 C42.1380844,0.0143056769 42.5390622,0.427069869 42.5199956,1.2339214 L42.5199956,1.96566812 L39.9801422,1.96566812 L39.9801422,0.0143056769 L41.2978222,0.0143056769 Z" id="Fill-5" fill="#FFFFFE" mask="url(#mask-2)"></path>
                    <path d="M49.5366444,8.70142795 L49.5366444,7.78217467 C48.9445956,8.02616594 48.2570978,8.23257642 47.5124,8.38261572 C46.5002489,8.57034934 45.98464,9.03920087 45.98464,9.77106114 C46.0419556,10.558952 46.4621156,10.9343624 47.2641289,10.9343624 C48.6772,10.9343624 49.5366444,10.1087773 49.5366444,8.70142795 Z M46.3284178,5.43678166 L43.7885067,5.43678166 C44.0940933,3.5981048 45.4117733,2.69735808 47.7416044,2.69735808 C50.5296133,2.69735808 51.9428,3.5981048 52,5.43678166 L52,8.81411354 C52,11.5535371 50.3195333,12.7731528 47.5887244,12.9606026 C45.16356,13.1483362 43.4830933,12.0413493 43.4830933,9.8460524 C43.5402933,7.46313537 45.2972578,6.82528384 47.85612,6.58140611 C48.9445956,6.45004367 49.4984533,6.13100437 49.4984533,5.5869345 C49.44108,5.02401747 48.9064622,4.74255895 47.85612,4.74255895 C46.9586,4.74255895 46.4621156,4.96770306 46.3284178,5.43678166 Z" id="Fill-6" fill="#FFFFFE" mask="url(#mask-2)"></path>
                </g>
                <path d="M32.6031246,7.16158257 L32.6031246,8.05552882 C33.2286902,7.81821408 33.9551791,7.61755367 34.7421731,7.47159876 C35.8116669,7.28909991 36.3565183,6.83318401 36.3565183,6.12151579 C36.2959521,5.35530768 35.852024,4.99030999 35.0044638,4.99030999 C33.511251,4.99030999 32.6031246,5.79306202 32.6031246,7.16158257 Z M35.9933043,10.3362124 L38.6772042,10.3362124 C38.3542864,12.1241601 36.9618748,13 34.4999695,13 C31.55384,13 30.0605051,12.1241601 30,10.3362124 L30,7.05206118 C30,4.38821836 31.7758346,3.20219666 34.6614589,3.01991863 C37.2242265,2.83741978 39,3.91386488 39,6.04853833 C38.9395559,8.36576582 37.0829461,8.98596381 34.3788982,9.22316815 C33.2286902,9.3509063 32.6434817,9.6611433 32.6434817,10.1901471 C32.7040479,10.7375884 33.2690473,11.0112263 34.3788982,11.0112263 C35.3273816,11.0112263 35.852024,10.7923491 35.9933043,10.3362124 Z" id="Fill-8" fill="#FFFFFE"></path>
            </g>
        </g>
    </g>
</svg>