<?xml version="1.0" encoding="UTF-8"?>
<svg width="300px" height="265px" viewBox="0 0 300 265" version="1.1" xmlns="http://www.w3.org/2000/svg" xmlns:xlink="http://www.w3.org/1999/xlink">
    <!-- Generator: Sketch 52.4 (67378) - http://www.bohemiancoding.com/sketch -->
    <title>icon-error404</title>
    <desc>Created with Sketch.</desc>
    <g id="Page-1" stroke="none" stroke-width="1" fill="none" fill-rule="evenodd">
        <g id="Codeia---404-Error" transform="translate(-533.000000, -146.000000)">
            <g id="icon-error404" transform="translate(533.000000, 146.000000)">
                <path d="M294.589754,1.69014085 L8.79052752,1.69014085 C5.80556322,1.69753273 3.38758886,4.14354048 3.38028169,7.1631117 L3.38028169,181.020704 L3.38028169,212.500372 C3.38758886,215.519943 5.80556322,217.965951 8.79052752,217.973343 L101.296426,217.973343 L101.296426,249.668164 L76.777511,249.668164 L76.777511,264.507042 L226.463194,264.507042 L226.463194,249.661441 L203.340043,249.661441 L203.340043,217.966619 L294.589754,217.966619 C297.576232,217.962915 299.996338,215.514751 300,212.493648 L300,7.1631117 C299.992693,4.14354048 297.574718,1.69753273 294.589754,1.69014085 Z" id="Path" fill="#4F4F4F"></path>
                <path d="M0,179.15493 L0,210.830924 C0.00730651207,213.869328 2.42506417,216.33059 5.40976095,216.338028 L291.209957,216.338028 C294.196168,216.3343 296.616056,213.870868 296.619718,210.830924 L296.619718,179.15493 L0,179.15493 Z" id="Path" fill="#F0EFEF"></path>
                <path d="M296.619718,5.4676107 C296.612412,2.45099681 294.194654,0.0073846449 291.209957,0 L5.40976095,0 C2.42506417,0.0073846449 0.00730651207,2.45099681 0,5.4676107 L0,179.15493 L296.619718,179.15493 L296.619718,5.4676107 Z" id="Path" fill="#544B62"></path>
                <rect id="Rectangle" fill="#D5D5D5" x="98.8732394" y="216.338028" width="101.408451" height="31.2676056"></rect>
                <rect id="Rectangle" fill="#F0EFEF" x="73.5211268" y="247.605634" width="148.732394" height="15.2112676"></rect>
                <rect id="Rectangle" fill="#BCBCBC" x="98.8732394" y="216.338028" width="101.408451" height="10.9859155"></rect>
                <rect id="Rectangle" fill="#57D284" x="14.3661972" y="15.2112676" width="267.042254" height="147.887324"></rect>
                <g id="404" transform="translate(48.000000, 61.000000)" fill-rule="nonzero">
                    <g id="Group-2" transform="translate(2.000000, 2.000000)" fill="#4F4F4F">
                        <path d="M33.9700051,64.6901408 C32.6398921,64.6722834 31.5659822,63.6040726 31.5480295,62.2810184 L31.5480295,53.1688282 L3.27830321,53.1688282 C1.94558541,53.1545395 0.86768671,52.0853067 0.849655494,50.7597058 L0.849655494,41.2957704 C0.796448587,39.9231728 1.20757675,38.5724814 2.01727459,37.4597574 L28.8725138,3.79841076 C29.2644528,3.25507952 29.7696981,2.80231912 30.353722,2.4710706 C30.9382917,2.23809065 31.5660789,2.13175219 32.1952241,2.15914566 L45.7462777,2.15914566 C47.0763907,2.17700307 48.1503006,3.24521387 48.1682533,4.56826806 L48.1682533,38.8534645 L55.8878835,38.8534645 C57.2179965,38.8713219 58.2919065,39.9395327 58.3098592,41.2625869 L58.3098592,50.7597058 C58.2919065,52.08276 57.2179965,53.1509708 55.8878835,53.1688282 L48.1549091,53.1688282 L48.1549091,62.2743817 C48.1369564,63.5974359 47.0630465,64.6656467 45.7329335,64.6835041 L33.9700051,64.6835041 L33.9700051,64.6901408 Z M31.9683724,38.886648 L31.9683724,22.4608135 L18.8643501,38.886648 L31.9683724,38.886648 Z" id="Shape"></path>
                        <path d="M173.425866,64.6901408 C172.094981,64.6722834 171.020447,63.6040726 171.002484,62.2810184 L171.002484,53.1688282 L142.70966,53.1688282 C141.378775,53.1509708 140.304241,52.08276 140.286278,50.7597058 L140.286278,41.2957704 C140.23304,39.9231728 140.644407,38.5724814 141.454575,37.4597574 L168.305386,3.79841076 C168.697553,3.25507952 169.203091,2.80231912 169.787455,2.4710706 C170.372364,2.23809065 171.000516,2.13175219 171.630026,2.15914566 L185.1756,2.15914566 C186.506485,2.17700307 187.581019,3.24521387 187.598982,4.56826806 L187.598982,38.8534645 L195.323096,38.8534645 C196.653982,38.8713219 197.728516,39.9395327 197.746479,41.2625869 L197.746479,50.7597058 C197.728516,52.08276 196.653982,53.1509708 195.323096,53.1688282 L187.612334,53.1688282 L187.612334,62.2743817 C187.594371,63.5974359 186.519837,64.6656467 185.188952,64.6835041 L173.425866,64.6835041 L173.425866,64.6901408 Z M171.423071,38.886648 L171.423071,22.4608135 L158.338141,38.886648 L171.449775,38.886648 L171.423071,38.886648 Z" id="Shape"></path>
                        <path d="M99.2962748,0.464788732 C85.4536144,0.464788732 72.9739915,8.80340619 67.6766347,21.5923568 C62.3792778,34.3813075 65.3074109,49.1020265 75.09565,58.8902655 C84.883889,68.6785046 99.604608,71.6066376 112.393559,66.3092808 C125.182509,61.011924 133.521127,48.5323011 133.521127,34.6896406 C133.499243,15.7968488 118.189067,0.486672297 99.2962748,0.464788732 Z M118.622627,23.8814443 C120.49836,27.1770553 121.48376,30.9042383 121.481868,34.6962593 C121.463635,46.9403917 111.540412,56.8606539 99.2962748,56.8752341 C95.5011778,56.8780918 91.7710685,55.8902402 88.4748413,54.0093743 L118.622627,23.8814443 Z M99.2962748,12.49081 C103.09153,12.4933238 106.820832,13.4832426 110.117708,15.3632884 L79.9699226,45.497837 C78.0895674,42.2034917 77.0995854,38.476232 77.0974442,34.683022 C77.1156777,22.4315789 87.0448268,12.5053902 99.2962748,12.49081 Z" id="Shape"></path>
                    </g>
                    <g id="Group">
                        <path d="M33.4347939,65 C32.1046809,64.9821426 31.0307709,63.9139318 31.0128182,62.5908776 L31.0128182,53.4786874 L2.74309194,53.4786874 C1.41037414,53.4643987 0.332475442,52.3951658 0.314444227,51.069565 L0.314444227,41.6056296 C0.26123732,40.2330319 0.672365485,38.8823406 1.48206332,37.7696165 L28.3373025,4.10826992 C28.7292415,3.56493867 29.2344868,3.11217827 29.8185107,2.78092975 C30.4030804,2.5479498 31.0308676,2.44161134 31.6600128,2.46900481 L45.2110664,2.46900481 C46.5411794,2.48686222 47.6150894,3.55507302 47.633042,4.87812721 L47.633042,39.1633237 L55.3526723,39.1633237 C56.6827853,39.1811811 57.7566952,40.2493919 57.7746479,41.5724461 L57.7746479,51.069565 C57.7566952,52.3926192 56.6827853,53.46083 55.3526723,53.4786874 L47.6196978,53.4786874 L47.6196978,62.5842409 C47.6017451,63.9072951 46.5278352,64.9755059 45.1977222,64.9933633 L33.4347939,64.9933633 L33.4347939,65 Z M31.4331611,39.1965072 L31.4331611,22.7706726 L18.3291388,39.1965072 L31.4331611,39.1965072 Z" id="Shape" fill="#1C113D"></path>
                        <path d="M173.735725,65 C172.40484,64.9821426 171.330306,63.9139318 171.312343,62.5908776 L171.312343,53.4786874 L143.01952,53.4786874 C141.688634,53.46083 140.6141,52.3926192 140.596137,51.069565 L140.596137,41.6056296 C140.542899,40.2330319 140.954266,38.8823406 141.764434,37.7696165 L168.615245,4.10826992 C169.007412,3.56493867 169.512951,3.11217827 170.097314,2.78092975 C170.682223,2.5479498 171.310375,2.44161134 171.939886,2.46900481 L185.485459,2.46900481 C186.816344,2.48686222 187.890878,3.55507302 187.908841,4.87812721 L187.908841,39.1633237 L195.632956,39.1633237 C196.963841,39.1811811 198.038375,40.2493919 198.056338,41.5724461 L198.056338,51.069565 C198.038375,52.3926192 196.963841,53.46083 195.632956,53.4786874 L187.922193,53.4786874 L187.922193,62.5842409 C187.90423,63.9072951 186.829696,64.9755059 185.498811,64.9933633 L173.735725,64.9933633 L173.735725,65 Z M171.73293,39.1965072 L171.73293,22.7706726 L158.648,39.1965072 L171.759634,39.1965072 L171.73293,39.1965072 Z" id="Shape" fill="#1C113D"></path>
                        <path d="M99.606134,0.774647887 C85.7634736,0.774647887 73.2838506,9.11326535 67.9864938,21.902216 C62.689137,34.6911667 65.6172701,49.4118856 75.4055091,59.2001247 C85.1937482,68.9883637 99.9144672,71.9164968 112.703418,66.61914 C125.492368,61.3217832 133.830986,48.8421602 133.830986,34.9994998 C133.809102,16.1067079 118.498926,0.796531452 99.606134,0.774647887 Z M118.932486,24.1913035 C120.80822,27.4869144 121.793619,31.2140974 121.791727,35.0061184 C121.773494,47.2502508 111.850271,57.1705131 99.606134,57.1850932 C95.8110369,57.1879509 92.0809276,56.2000993 88.7847004,54.3192335 L118.932486,24.1913035 Z M99.606134,12.8006691 C103.401389,12.803183 107.130691,13.7931018 110.427568,15.6731475 L80.2797817,45.8076961 C78.3994266,42.5133508 77.4094445,38.7860912 77.4073033,34.9928812 C77.4255369,22.7414381 87.354686,12.8152493 99.606134,12.8006691 Z" id="Shape" fill="#EA0A1B"></path>
                    </g>
                </g>
                <text id="ERROR!" font-family="Rubik-Light, Rubik" font-size="12" font-weight="300" fill="#1C113D">
                    <tspan x="129.106" y="46">ERROR!</tspan>
                </text>
            </g>
        </g>
    </g>
</svg>