<?xml version="1.0" encoding="UTF-8"?>
<svg width="106px" height="27px" viewBox="0 0 106 27" version="1.1" xmlns="http://www.w3.org/2000/svg" xmlns:xlink="http://www.w3.org/1999/xlink">
    <!-- Generator: Sketch 52.4 (67378) - http://www.bohemiancoding.com/sketch -->
    <title>codeia-LogoText-white-01</title>
    <desc>Created with Sketch.</desc>
    <defs>
        <polygon id="path-1" points="0 0.0297117904 106 0.0297117904 106 26.9929258 0 26.9929258"></polygon>
    </defs>
    <g id="Page-1" stroke="none" stroke-width="1" fill="none" fill-rule="evenodd">
        <g id="Codeia-Market-Place" transform="translate(-173.000000, -30.000000)">
            <g id="codeia-LogoText-white-01" transform="translate(173.000000, 30.000000)">
                <g id="Group-7">
                    <mask id="mask-2" fill="white">
                        <use xlink:href="#path-1"></use>
                    </mask>
                    <g id="Clip-2"></g>
                    <path d="M9.57615778,26.996345 C3.34771556,26.996345 0.155702222,23.4112402 0,16.3188472 C0,9.26548035 3.15302889,5.71928384 9.49830667,5.60220524 C14.4810133,5.60220524 17.4394733,7.82375109 18.33482,12.3049258 L12.69032,12.3049258 C12.0675111,10.9022227 10.9774778,10.1616681 9.34248667,10.1616681 C6.61769778,10.1616681 5.25524444,12.2269913 5.25524444,16.3188472 C5.25524444,20.4107031 6.69554889,22.4757904 9.57615778,22.437 C10.7829089,22.437 11.83384,21.930131 12.69032,20.9563624 C13.1964111,20.4494934 13.7803533,20.2155721 14.4421467,20.2155721 L18.33482,20.2155721 C17.4006067,24.4243886 14.3642956,27.1134236 9.57615778,26.996345" id="Fill-1" fill="#FFFFFE" mask="url(#mask-2)"></path>
                    <path d="M25.5517711,16.3188472 C25.5908733,20.3325328 26.9532089,22.3588297 29.6002644,22.3588297 C32.24732,22.3588297 33.5709067,20.2548341 33.6097733,16.1629782 C33.6097733,12.1490568 32.2863044,10.1616681 29.6393667,10.1616681 C26.9142244,10.1616681 25.5517711,12.2269913 25.5517711,16.3188472 Z M39.0208378,16.3188472 C39.0208378,23.4112402 35.8675733,26.996345 29.6393667,26.996345 C23.4108067,26.996345 20.2966444,23.4112402 20.2966444,16.3188472 C20.2966444,9.14851965 23.4108067,5.60220524 29.6393667,5.60220524 C35.8675733,5.60220524 39.0208378,9.14851965 39.0208378,16.3188472 Z" id="Fill-3" fill="#FFFFFE" mask="url(#mask-2)"></path>
                    <path d="M46.3157578,16.1629782 C46.2767733,20.3325328 47.6782111,22.437 50.6365533,22.437 C53.5951311,22.437 55.07442,20.3325328 55.07442,16.1629782 C54.9575844,12.1882009 53.5173978,10.2396026 50.71464,10.2396026 C47.9117644,10.2396026 46.47146,12.1882009 46.3157578,16.1629782 Z M60.2128289,2.64069432 L60.2128289,17.6047074 C60.2128289,23.8011485 56.9819489,26.8793843 50.5587022,26.8405939 C44.1747933,26.7235153 40.98278,23.2554891 40.98278,16.3968996 C40.98278,9.38220524 43.7075689,5.79710044 49.1963667,5.60220524 C51.7655711,5.60220524 53.7508333,6.65449782 55.07442,8.79775546 L55.07442,0.0297117904 L57.6436244,0.0297117904 C59.04518,0.0297117904 60.2128289,1.23775546 60.2128289,2.64069432 Z" id="Fill-4" fill="#FFFFFE" mask="url(#mask-2)"></path>
                    <path d="M84.1840222,6.38532314 C85.8577622,6.38532314 86.6753756,7.20357642 86.6753756,8.87934498 L86.6753756,27 L81.4979822,27 L81.4979822,6.38532314 L84.1840222,6.38532314 Z M84.1840222,0.0297117904 C85.8968644,0.0297117904 86.7142422,0.886991266 86.6753756,2.56275983 L86.6753756,4.08254148 L81.4979822,4.08254148 L81.4979822,0.0297117904 L84.1840222,0.0297117904 Z" id="Fill-5" fill="#FFFFFE" mask="url(#mask-2)"></path>
                    <path d="M100.978544,18.0721965 L100.978544,16.1629782 C99.7716756,16.6697293 98.3702378,17.0984279 96.8522,17.410048 C94.7889689,17.7999563 93.73792,18.7737249 93.73792,20.2937424 C93.8547556,21.930131 94.7112356,22.7098297 96.3461089,22.7098297 C99.2266,22.7098297 100.978544,20.9951528 100.978544,18.0721965 Z M94.4386978,11.2917773 L89.2611867,11.2917773 C89.8841133,7.4729869 92.5701533,5.60220524 97.3194244,5.60220524 C103.002673,5.60220524 105.8834,7.4729869 106,11.2917773 L106,18.3062358 C106,23.9958079 102.574433,26.5288559 97.0077844,26.9181747 C92.06418,27.308083 88.6386133,25.0089563 88.6386133,20.4494934 C88.7552133,15.5003581 92.3367178,14.1755895 97.55286,13.6690742 C99.7716756,13.3962445 100.900693,12.7336245 100.900693,11.6036332 C100.78374,10.4344978 99.6939422,9.84993013 97.55286,9.84993013 C95.7233,9.84993013 94.7112356,10.3175371 94.4386978,11.2917773 Z" id="Fill-6" fill="#FFFFFE" mask="url(#mask-2)"></path>
                </g>
                <path d="M66.9170132,14.7393234 L66.9170132,16.6166105 C68.0986371,16.1182496 69.4708939,15.6968627 70.9574381,15.3903574 C72.977593,15.0071098 74.0067567,14.0496864 74.0067567,12.5551832 C73.8923539,10.9461461 73.053823,10.179651 71.452876,10.179651 C68.632363,10.179651 66.9170132,11.8654302 66.9170132,14.7393234 Z M73.320686,21.406046 L78.3902747,21.406046 C77.7803187,25.1607362 75.1502079,27 70.4999423,27 C64.9350311,27 62.1142875,25.1607362 62,21.406046 L62,14.5093285 C62,8.91525855 65.3543542,6.42461299 70.804978,6.04182912 C75.6457611,5.65858154 79,7.91911626 79,12.4019305 C78.8858279,17.2681082 75.3788982,18.570524 70.2712521,19.0686531 C68.0986371,19.3369032 66.9932433,19.9884009 66.9932433,21.0993088 C67.1076461,22.2489356 68.1748672,22.8235752 70.2712521,22.8235752 C72.062832,22.8235752 73.053823,22.3639331 73.320686,21.406046 Z" id="Fill-8" fill="#FFFFFE"></path>
            </g>
        </g>
    </g>
</svg>