<?xml version="1.0" encoding="UTF-8"?>
<svg width="14px" height="14px" viewBox="0 0 14 14" version="1.1" xmlns="http://www.w3.org/2000/svg" xmlns:xlink="http://www.w3.org/1999/xlink">
    <!-- Generator: Sketch 52.4 (67378) - http://www.bohemiancoding.com/sketch -->
    <title>icon-user</title>
    <desc>Created with Sketch.</desc>
    <g id="Page-1" stroke="none" stroke-width="1" fill="none" fill-rule="evenodd">
        <g id="Codeia-Graphic-(see-more)" transform="translate(-1108.000000, -13.000000)" fill="#FFFFFF">
            <g id="User" transform="translate(1090.000000, 0.000000)">
                <g id="icon-user" transform="translate(18.000000, 13.000000)">
                    <path d="M8.6809417,10.0887892 L8.6809417,9.3790583 C8.72520179,9.32349776 8.77197309,9.26197309 8.81811659,9.19542601 C9.09089686,8.81089686 9.31188341,8.38242152 9.47479821,7.92224215 C9.80973094,7.7473991 10.016278,7.40838565 10.016278,7.02825112 L10.016278,6.13834081 C10.016278,5.91170404 9.93780269,5.68977578 9.79434978,5.50959641 L9.79403587,4.37986547 C9.80784753,4.23264574 9.84896861,3.46578475 9.29775785,2.83672646 C8.81529148,2.2870852 8.04278027,2.00834081 7,2.00834081 C5.95721973,2.00834081 5.18439462,2.2870852 4.70224215,2.83672646 C4.15071749,3.46547085 4.19215247,4.23264574 4.20565022,4.37107623 L4.20565022,5.50959641 C4.06219731,5.68852018 3.98372197,5.91044843 3.98372197,6.13834081 L3.98372197,7.02825112 C3.98372197,7.32112108 4.10959641,7.59704036 4.33026906,7.78977578 C4.53713004,8.57547085 4.9470852,9.17188341 5.09713004,9.37246637 L5.09713004,10.0680717 C5.09713004,10.2382063 5.00421525,10.395157 4.8544843,10.4767713 L2.86748879,11.5600448 C2.8229148,11.5845291 2.7773991,11.6121525 2.73219731,11.642287 C1.43390135,10.4472646 0.691210762,8.75973094 0.691210762,7 C0.691210762,3.52134529 3.52134529,0.691210762 7,0.691210762 C10.4786547,0.691210762 13.3087892,3.52134529 13.3087892,7 C13.3087892,8.7741704 12.5547982,10.471435 11.2373543,11.6680269 C11.180852,11.6309865 11.1230942,11.5970852 11.0637668,11.5678924 L8.93802691,10.5053363 C8.77919283,10.4249776 8.6809417,10.2655157 8.6809417,10.0887892 Z M8.98071749,12.9889238 C8.82627803,13.0407175 8.66932735,13.0856054 8.50892377,13.1254709 C8.34757848,13.1656502 8.18623318,13.1976682 8.01044843,13.2281166 C7.85695067,13.252287 7.7006278,13.2704933 7.54618834,13.2849327 L7.46269058,13.2908969 C7.30950673,13.3015695 7.15475336,13.3091031 7,13.3091031 C6.84304933,13.3091031 6.68735426,13.3015695 6.52820628,13.2893274 C6.50278027,13.2880717 6.47609865,13.2861883 6.45004484,13.2836771 C6.29278027,13.2704933 6.1367713,13.2507175 5.96255605,13.2230942 C5.63139013,13.1672197 5.30744395,13.0862332 5.00233184,12.9839013 L4.9696861,12.972287 C4.82152466,12.9223767 4.6667713,12.8630493 4.51013453,12.7955605 L4.49161435,12.7880269 C4.35412556,12.7280717 4.21883408,12.6624664 4.08573991,12.5930942 L4.03017937,12.564843 C3.90336323,12.4970404 3.78,12.4245291 3.64753363,12.3416592 C3.6158296,12.3215695 3.58381166,12.3014798 3.55022422,12.2782511 C3.46672646,12.2242601 3.3841704,12.1677578 3.30318386,12.1093722 L5.18502242,11.0838565 C5.55636771,10.8804484 5.7867713,10.4915247 5.7867713,10.0680717 L5.7867713,9.12950673 L5.70641256,9.03156951 C5.70107623,9.02529148 5.17372197,8.38430493 4.97313901,7.51197309 L4.94269058,7.37479821 L4.82434978,7.29852018 C4.72986547,7.23762332 4.67367713,7.13654709 4.67367713,7.02825112 L4.67367713,6.13834081 C4.67367713,6.04919283 4.7126009,5.96412556 4.78165919,5.90040359 L4.89686099,5.79775785 L4.89654709,4.35067265 L4.89372197,4.31300448 C4.88430493,4.21538117 4.85605381,3.70748879 5.22143498,3.29156951 C5.56578475,2.89887892 6.16439462,2.69955157 7,2.69955157 C7.83278027,2.69955157 8.42919283,2.89730942 8.7738565,3.28748879 C9.14834081,3.7096861 9.11161435,4.25367713 9.10565022,4.32461883 L9.10313901,5.79869955 L9.217713,5.90134529 C9.287713,5.96475336 9.32632287,6.04887892 9.32632287,6.13834081 L9.32632287,7.02825112 C9.32632287,7.16636771 9.23183857,7.29224215 9.09654709,7.33430493 L8.92390135,7.38672646 L8.86834081,7.55843049 C8.72331839,8.00982063 8.5164574,8.42605381 8.25466368,8.7961435 C8.1903139,8.88623318 8.12847534,8.96596413 8.07542601,9.02748879 L7.99130045,9.1241704 L7.99130045,10.0887892 C7.99130045,10.5291928 8.2355157,10.9256502 8.62914798,11.1234081 L10.6566368,12.1369955 C10.5841256,12.1881614 10.5109865,12.2390135 10.4372197,12.2867265 L10.3141704,12.3667713 C10.1967713,12.4389686 10.0778027,12.5067713 9.95820628,12.5711211 L9.87659193,12.61287 C9.5903139,12.759148 9.29964126,12.8818834 9.01273543,12.9779372 L8.98071749,12.9889238 Z M14,7 C14,3.14026906 10.8597309,0 7,0 C3.14026906,0 0,3.14026906 0,7 C0,8.92107623 0.801076233,10.7708969 2.20107623,12.090852 L2.19134529,12.100583 L2.49237668,12.354843 L2.53820628,12.3896861 C2.65843049,12.4888789 2.78399103,12.5830493 2.91017937,12.6747085 L3.03542601,12.7647982 C3.172287,12.8580269 3.31134529,12.9474888 3.4532287,13.0303587 L3.5470852,13.0852915 C3.71690583,13.1816592 3.8735426,13.2629596 4.02578475,13.3339013 L4.06188341,13.3514798 C4.59865471,13.5997758 5.16807175,13.7799552 5.75883408,13.8882511 L5.80121076,13.8942152 C5.98452915,13.9271749 6.17318386,13.9519731 6.35932735,13.9686099 L6.42964126,13.9752018 C6.63995516,13.9921525 6.82641256,14 7,14 C7.17139013,14 7.35627803,13.9921525 7.56753363,13.9752018 C7.58919283,13.9726906 7.61116592,13.9717489 7.63659193,13.9701794 C7.81520179,13.9538565 7.99632287,13.93 8.1903139,13.8970404 L8.17461883,13.8041256 L8.23928251,13.8882511 C8.81403587,13.7852915 9.37529148,13.6095067 9.90515695,13.3656054 L9.96573991,13.3389238 C10.1233184,13.2645291 10.2765022,13.1847982 10.426861,13.1000448 C10.4645291,13.0786996 10.5025112,13.0573543 10.5386099,13.0356951 C10.6757848,12.9547085 10.8113901,12.8712108 10.9404036,12.781435 C10.980583,12.7547534 11.0204484,12.7255605 11.0797758,12.6819283 C11.1924664,12.6018834 11.3029596,12.5183857 11.406861,12.4326906 L11.4825112,12.3765022 L11.7113453,12.1840807 L11.7907623,12.1056054 L11.7866816,12.1021525 C13.194843,10.7812556 14,8.92829596 14,7 Z" id="Fill-1"></path>
                </g>
            </g>
        </g>
    </g>
</svg>