<?xml version="1.0" encoding="UTF-8"?>
<svg width="16px" height="16px" viewBox="0 0 16 16" version="1.1" xmlns="http://www.w3.org/2000/svg" xmlns:xlink="http://www.w3.org/1999/xlink">
    <!-- Generator: Sketch 52.4 (67378) - http://www.bohemiancoding.com/sketch -->
    <title>icon-Google+Active</title>
    <desc>Created with Sketch.</desc>
    <g id="Page-1" stroke="none" stroke-width="1" fill="none" fill-rule="evenodd">
        <g id="Codeia-Market-Place" transform="translate(-173.000000, -1760.000000)" fill="#57D284" fill-rule="nonzero">
            <g id="Footer-Section-Copy" transform="translate(0.000000, 1505.000000)">
                <g id="icon-Google+Active" transform="translate(173.000000, 255.000000)">
                    <g id="Group-4">
                        <path d="M0,0 L16,0 L16,16 L0,16 L0,0 Z M9.48053608,8.75465195 C9.51846782,8.50594043 9.53829578,8.24476786 9.53833497,7.97054645 C9.53833497,7.69409147 9.51568564,7.42727616 9.47093559,7.17233411 L5.74316246,7.17233411 L5.74316246,8.75465195 L7.86424425,8.75465195 C7.62971794,9.79366032 6.81673259,10.3125963 5.74316246,10.3125963 C4.46226088,10.3125963 3.42380112,9.25203582 3.42380112,7.97054645 C3.42380112,6.69019347 4.46226088,5.59793177 5.74316246,5.59793177 C6.35159855,5.59793177 6.87566786,5.80357823 7.25862953,6.18940046 L8.38941076,5.05861922 C7.71808166,4.40656947 6.79576825,4.03093552 5.74316246,4.03093552 C3.56714234,4.03093552 1.80296374,5.79511412 1.80296374,7.97058564 C1.80296374,10.1466058 3.56714234,11.9107844 5.74316246,11.9107844 C7.67952294,11.9107844 9.17516206,10.7607238 9.48053608,8.75465195 Z M14.212168,8.26404721 L14.212168,7.28279855 L12.8315389,7.28279855 L12.8315389,5.9021694 L11.850878,5.9021694 L11.850878,7.28279855 L10.4702489,7.28279855 L10.4702489,8.26404721 L11.850878,8.26404721 L11.850878,9.64408857 L12.8315389,9.64408857 L12.8315389,8.26404721 L14.212168,8.26404721 Z" id="Combined-Shape"></path>
                    </g>
                </g>
            </g>
        </g>
    </g>
</svg>