<?xml version="1.0" encoding="UTF-8"?>
<svg width="12px" height="12px" viewBox="0 0 12 12" version="1.1" xmlns="http://www.w3.org/2000/svg" xmlns:xlink="http://www.w3.org/1999/xlink">
    <!-- Generator: Sketch 52.4 (67378) - http://www.bohemiancoding.com/sketch -->
    <title>icon-cart</title>
    <desc>Created with Sketch.</desc>
    <g id="Page-1" stroke="none" stroke-width="1" fill="none" fill-rule="evenodd">
        <g id="Codeia-Market-Place" transform="translate(-1082.000000, -38.000000)" fill="#FFFFFF">
            <g id="icon-cart" transform="translate(1082.000000, 38.000000)">
                <path d="M10,9.33333333 L2.40601504,9.33333333 C2.28070175,9.33333333 2.18045113,9.28133705 2.13032581,9.17734448 C2.05513784,9.0733519 2.05513784,8.94336119 2.10526316,8.83936862 L2.75689223,7.12349118 L2.10526316,0.727948004 L0,0.727948004 L0,0 L2.40601504,0 C2.58145363,0 2.73182957,0.129990715 2.75689223,0.311977716 L3.45864662,7.09749304 C3.45864662,7.14948932 3.45864662,7.20148561 3.43358396,7.27948004 L2.93233083,8.57938719 L10,8.57938719 L10,9.33333333" id="Fill-110"></path>
                <path d="M2.79236499,7.33333333 L2.63035382,6.64102564 L11.2439479,4.94871795 L11.2439479,2.05128205 L2.33333333,2.05128205 L2.33333333,1.33333333 L11.6219739,1.33333333 C11.8379888,1.33333333 12,1.48717949 12,1.69230769 L12,5.23076923 C12,5.41025641 11.8649907,5.53846154 11.7029795,5.56410256 L2.79236499,7.33333333" id="Fill-111"></path>
                <path d="M10,11.3333333 C9.27272727,11.3333333 8.66666667,10.7272727 8.66666667,10 C8.66666667,9.27272727 9.27272727,8.66666667 10,8.66666667 C10.7272727,8.66666667 11.3333333,9.27272727 11.3333333,10 C11.3333333,10.7272727 10.7272727,11.3333333 10,11.3333333 Z M10,9.32121212 C9.63636364,9.32121212 9.32121212,9.61212121 9.32121212,10 C9.32121212,10.3878788 9.61212121,10.6787879 10,10.6787879 C10.3878788,10.6787879 10.6787879,10.3878788 10.6787879,10 C10.6787879,9.61212121 10.3636364,9.32121212 10,9.32121212 Z" id="Fill-112" fill-rule="nonzero"></path>
                <path d="M2,11.3333333 C1.27272727,11.3333333 0.666666667,10.7272727 0.666666667,10 C0.666666667,9.27272727 1.27272727,8.66666667 2,8.66666667 C2.72727273,8.66666667 3.33333333,9.27272727 3.33333333,10 C3.33333333,10.7272727 2.72727273,11.3333333 2,11.3333333 Z M2,9.32121212 C1.63636364,9.32121212 1.32121212,9.61212121 1.32121212,10 C1.32121212,10.3878788 1.61212121,10.6787879 2,10.6787879 C2.38787879,10.6787879 2.67878788,10.3878788 2.67878788,10 C2.67878788,9.61212121 2.36363636,9.32121212 2,9.32121212 Z" id="Fill-113" fill-rule="nonzero"></path>
            </g>
        </g>
    </g>
</svg>