<svg id="Layer_1" data-name="Layer 1" xmlns="http://www.w3.org/2000/svg" xmlns:xlink="http://www.w3.org/1999/xlink" viewBox="0 0 114.83 43"><defs><style>.cls-1{fill:#fff;}.cls-2{mask:url(#mask);}.cls-3{fill:#fffffe;}.cls-4{mask:url(#mask-2-2);}.cls-5{mask:url(#mask-3);}.cls-6{isolation:isolate;}.cls-7{fill:#4dc378;}</style><mask id="mask" x="3.88" y="0.03" width="106" height="26.97" maskUnits="userSpaceOnUse"><g id="mask-2"><polygon id="path-1" class="cls-1" points="3.88 0.03 109.88 0.03 109.88 26.99 3.88 26.99 3.88 0.03"/></g></mask><mask id="mask-2-2" x="3.88" y="0.03" width="106" height="26.97" maskUnits="userSpaceOnUse"><g id="mask-2-3" data-name="mask-2"><polygon id="path-1-2" data-name="path-1" class="cls-1" points="3.88 0.03 109.88 0.03 109.88 26.99 3.88 26.99 3.88 0.03"/></g></mask><mask id="mask-3" x="3.88" y="0.03" width="106" height="26.96" maskUnits="userSpaceOnUse"><g id="mask-2-4" data-name="mask-2"><polygon id="path-1-3" data-name="path-1" class="cls-1" points="3.88 0.03 109.88 0.03 109.88 26.99 3.88 26.99 3.88 0.03"/></g></mask></defs><title>logo-CodeiaDev</title><g id="logo-CodeiaMktPlace"><g id="codeia-LogoText-white-01"><g id="Group-7"><g class="cls-2"><path id="Fill-1" class="cls-3" d="M13.46,27C7.23,27,4,23.41,3.88,16.32c0-7,3.15-10.6,9.5-10.72,5,0,7.94,2.22,8.83,6.7H16.57a3.37,3.37,0,0,0-3.35-2.14c-2.72,0-4.09,2.07-4.09,6.16s1.44,6.16,4.33,6.12A4.06,4.06,0,0,0,16.57,21a2.38,2.38,0,0,1,1.75-.74h3.89c-.93,4.2-4,6.89-8.75,6.78"/></g><g class="cls-4"><path id="Fill-3" class="cls-3" d="M29.43,16.32c0,4,1.4,6,4,6s4-2.11,4-6.2-1.32-6-4-6S29.43,12.23,29.43,16.32Zm13.47,0C42.9,23.41,39.75,27,33.52,27s-9.34-3.59-9.34-10.68S27.29,5.6,33.52,5.6,42.9,9.15,42.9,16.32Z"/></g><g class="cls-5"><path id="Fill-4" class="cls-3" d="M50.19,16.16c0,4.17,1.37,6.28,4.33,6.28S59,20.33,59,16.16c-.11-4-1.55-5.92-4.36-5.92S50.35,12.19,50.19,16.16ZM64.09,2.64v15c0,6.2-3.23,9.28-9.65,9.24s-9.58-3.58-9.58-10.44c0-7,2.73-10.6,8.22-10.8A6.47,6.47,0,0,1,59,8.8V0h2.57A2.63,2.63,0,0,1,64.09,2.64Z"/></g><g class="cls-2"><path id="Fill-5" class="cls-3" d="M88.06,6.39a2.19,2.19,0,0,1,2.49,2.49V27H85.38V6.39Zm0-6.36a2.19,2.19,0,0,1,2.49,2.53V4.08H85.38V0Z"/></g><g class="cls-5"><path id="Fill-6" class="cls-3" d="M104.86,18.07V16.16a22.08,22.08,0,0,1-4.13,1.25c-2.06.39-3.11,1.36-3.11,2.88a2.3,2.3,0,0,0,2.61,2.42A4.26,4.26,0,0,0,104.86,18.07Zm-6.54-6.78H93.14c.62-3.82,3.31-5.69,8.06-5.69,5.68,0,8.56,1.87,8.68,5.69v7c0,5.69-3.43,8.22-9,8.61-5,.39-8.37-1.91-8.37-6.47.11-4.95,3.7-6.27,8.91-6.78,2.22-.27,3.35-.94,3.35-2.07s-1.21-1.75-3.35-1.75C99.6,9.85,98.59,10.32,98.32,11.29Z"/></g></g><path id="Fill-8" class="cls-3" d="M70.8,14.74v1.88a21.86,21.86,0,0,1,4-1.23c2-.38,3-1.34,3-2.83a2.27,2.27,0,0,0-2.56-2.38A4.18,4.18,0,0,0,70.8,14.74Zm6.4,6.67h5.07C81.66,25.16,79,27,74.38,27c-5.57,0-8.39-1.84-8.5-5.59v-6.9c0-5.59,3.35-8.09,8.8-8.47,4.84-.38,8.2,1.88,8.2,6.36-.12,4.87-3.62,6.17-8.73,6.67-2.17.27-3.28.92-3.28,2s1.18,1.72,3.28,1.72C75.94,22.82,76.93,22.36,77.2,21.41Z"/></g><g id="Market-Place" class="cls-6"><g class="cls-6"><path class="cls-7" d="M9,35.71c0,.5,0,.94,0,1.31s0,.82,0,1.32a5.12,5.12,0,0,1-.36,1.88,4.19,4.19,0,0,1-1,1.42,4.25,4.25,0,0,1-1.46.89,5.62,5.62,0,0,1-1.88.3H.45a.44.44,0,0,1-.32-.13A.42.42,0,0,1,0,42.39V31.66a.4.4,0,0,1,.13-.31.45.45,0,0,1,.32-.14h3.8a5.78,5.78,0,0,1,1.9.31,4.18,4.18,0,0,1,1.5.89,4.12,4.12,0,0,1,1,1.42A4.88,4.88,0,0,1,9,35.71Zm-1.57.09a4.47,4.47,0,0,0-.19-1.16,2.86,2.86,0,0,0-.56-1,2.72,2.72,0,0,0-1-.68,3.75,3.75,0,0,0-1.51-.26H1.58v8.63H4.27a3.91,3.91,0,0,0,1.5-.26,2.5,2.5,0,0,0,1.49-1.67,4.53,4.53,0,0,0,.18-1.16c0-.24,0-.46,0-.65V36.47C7.44,36.27,7.44,36.05,7.44,35.8Z"/><path class="cls-7" d="M18.58,41.34a.42.42,0,0,1,.31.13.44.44,0,0,1,.13.32v.6a.44.44,0,0,1-.44.44H11.87a.44.44,0,0,1-.32-.13.42.42,0,0,1-.13-.31V31.66a.4.4,0,0,1,.13-.31.45.45,0,0,1,.32-.14h6.57a.45.45,0,0,1,.32.14.4.4,0,0,1,.13.31v.6a.4.4,0,0,1-.13.31.45.45,0,0,1-.32.14H13v3.5h5.08a.42.42,0,0,1,.31.13.45.45,0,0,1,.14.32v.6a.43.43,0,0,1-.14.31.42.42,0,0,1-.31.13H13v3.64Z"/><path class="cls-7" d="M28.29,31.63a.82.82,0,0,1,.18-.28.63.63,0,0,1,.46-.14h.62a.38.38,0,0,1,.26.11.35.35,0,0,1,.1.26.55.55,0,0,1,0,.17L26.29,42.17a1,1,0,0,1-.32.48.85.85,0,0,1-.55.18h-.67a.85.85,0,0,1-.55-.18,1,1,0,0,1-.31-.48l-3.6-10.42a.38.38,0,0,1,0-.17.38.38,0,0,1,.37-.37h.61a.66.66,0,0,1,.47.14,1,1,0,0,1,.18.28l3.2,9.54Z"/><path class="cls-7" d="M39,41.34a.42.42,0,0,1,.32.13.44.44,0,0,1,.13.32v.6a.42.42,0,0,1-.13.31.42.42,0,0,1-.32.13h-6.7A.44.44,0,0,1,32,42.7a.42.42,0,0,1-.13-.31V31.66a.4.4,0,0,1,.13-.31.45.45,0,0,1,.32-.14h6.57a.45.45,0,0,1,.32.14.4.4,0,0,1,.13.31v.6a.4.4,0,0,1-.13.31.45.45,0,0,1-.32.14H33.47v3.5h5.08a.42.42,0,0,1,.31.13.44.44,0,0,1,.13.32v.6a.44.44,0,0,1-.44.44H33.47v3.64Z"/><path class="cls-7" d="M48.92,41.34a.44.44,0,0,1,.45.45v.6a.42.42,0,0,1-.13.31.44.44,0,0,1-.32.13H42.17a.42.42,0,0,1-.32-.13.42.42,0,0,1-.13-.31V31.66a.4.4,0,0,1,.13-.31.43.43,0,0,1,.32-.14h.68a.43.43,0,0,1,.31.14.4.4,0,0,1,.13.31v9.68Z"/><path class="cls-7" d="M50.45,35.55a5.38,5.38,0,0,1,.32-1.76,4.13,4.13,0,0,1,2.32-2.39,5.55,5.55,0,0,1,3.88,0,4.13,4.13,0,0,1,2.32,2.39,5.38,5.38,0,0,1,.32,1.76c0,1,0,2,0,3a5.34,5.34,0,0,1-.34,1.75,4.1,4.1,0,0,1-.89,1.44,4,4,0,0,1-1.42,1,5.5,5.5,0,0,1-3.86,0,4,4,0,0,1-1.42-1,4.1,4.1,0,0,1-.89-1.44,5.34,5.34,0,0,1-.34-1.75C50.42,37.52,50.42,36.53,50.45,35.55Zm7.59.08a4.5,4.5,0,0,0-.26-1.36,2.55,2.55,0,0,0-1.56-1.54,3.82,3.82,0,0,0-2.38,0,2.48,2.48,0,0,0-.93.58,2.65,2.65,0,0,0-.64,1A4,4,0,0,0,52,35.63c0,.5,0,1,0,1.39s0,.9,0,1.4a4,4,0,0,0,.24,1.36,2.65,2.65,0,0,0,.64,1,2.48,2.48,0,0,0,.93.58,3.82,3.82,0,0,0,2.38,0,2.55,2.55,0,0,0,1.56-1.54A4.5,4.5,0,0,0,58,38.42c0-.5,0-1,0-1.4S58.06,36.13,58,35.63Z"/><path class="cls-7" d="M66.67,31.21a5.44,5.44,0,0,1,1.53.21,3.62,3.62,0,0,1,1.27.64,3,3,0,0,1,.87,1.1,3.46,3.46,0,0,1,.33,1.57,3.58,3.58,0,0,1-.33,1.59,3.11,3.11,0,0,1-.87,1.12,3.5,3.5,0,0,1-1.27.66,5.1,5.1,0,0,1-1.53.22H63.61v4.07a.44.44,0,0,1-.44.44h-.69a.44.44,0,0,1-.44-.44V31.66a.4.4,0,0,1,.13-.31.43.43,0,0,1,.31-.14Zm-3.06,5.61h3a3,3,0,0,0,1.85-.51,1.9,1.9,0,0,0,.65-1.58,1.79,1.79,0,0,0-.65-1.54,3.11,3.11,0,0,0-1.85-.48h-3Z"/><path class="cls-7" d="M77.82,38.24l3.36-6.49a1.07,1.07,0,0,1,.27-.37.65.65,0,0,1,.46-.17h.63a.43.43,0,0,1,.31.14.41.41,0,0,1,.14.31V42.39a.43.43,0,0,1-.14.31.42.42,0,0,1-.31.13h-.68a.42.42,0,0,1-.32-.13.42.42,0,0,1-.13-.31V34.52l-2.59,5a1.4,1.4,0,0,1-.28.39.55.55,0,0,1-.4.15h-.63a.54.54,0,0,1-.4-.15,1.4,1.4,0,0,1-.28-.39l-2.59-5v7.87a.43.43,0,0,1-.14.31.4.4,0,0,1-.31.13h-.68a.44.44,0,0,1-.32-.13.42.42,0,0,1-.13-.31V31.66a.4.4,0,0,1,.13-.31.45.45,0,0,1,.32-.14h.63a.65.65,0,0,1,.46.17,1.41,1.41,0,0,1,.27.37Z"/><path class="cls-7" d="M93,41.34a.42.42,0,0,1,.31.13.44.44,0,0,1,.13.32v.6a.44.44,0,0,1-.44.44H86.29A.44.44,0,0,1,86,42.7a.42.42,0,0,1-.13-.31V31.66a.4.4,0,0,1,.13-.31.45.45,0,0,1,.32-.14h6.57a.45.45,0,0,1,.32.14.4.4,0,0,1,.13.31v.6a.4.4,0,0,1-.13.31.45.45,0,0,1-.32.14H87.42v3.5H92.5a.42.42,0,0,1,.31.13.45.45,0,0,1,.14.32v.6a.43.43,0,0,1-.14.31.42.42,0,0,1-.31.13H87.42v3.64Z"/><path class="cls-7" d="M103.3,42.83a.52.52,0,0,1-.38-.15,2.2,2.2,0,0,1-.28-.34l-5.39-8.12v8.17a.43.43,0,0,1-.14.31.42.42,0,0,1-.31.13h-.68a.44.44,0,0,1-.32-.13.42.42,0,0,1-.13-.31V31.66a.4.4,0,0,1,.13-.31.45.45,0,0,1,.32-.14h.58a.57.57,0,0,1,.39.16,2.88,2.88,0,0,1,.27.34l5.4,8.12V31.66a.4.4,0,0,1,.13-.31.43.43,0,0,1,.32-.14h.68a.43.43,0,0,1,.31.14.4.4,0,0,1,.13.31V42.39a.44.44,0,0,1-.44.44Z"/><path class="cls-7" d="M114.38,31.21a.48.48,0,0,1,.45.45v.6a.48.48,0,0,1-.45.45h-3.11v9.68a.44.44,0,0,1-.44.44h-.69a.44.44,0,0,1-.44-.44V32.71h-3.11a.43.43,0,0,1-.31-.14.41.41,0,0,1-.14-.31v-.6a.41.41,0,0,1,.14-.31.43.43,0,0,1,.31-.14Z"/></g></g></g></svg>