<?xml version="1.0" encoding="UTF-8"?>
<svg width="90px" height="23px" viewBox="0 0 90 23" version="1.1" xmlns="http://www.w3.org/2000/svg" xmlns:xlink="http://www.w3.org/1999/xlink">
    <!-- Generator: Sketch 52.4 (67378) - http://www.bohemiancoding.com/sketch -->
    <title>codeia-LogoGreen</title>
    <desc>Created with Sketch.</desc>
    <defs>
        <polygon id="path-1" points="0 0.0243096467 90 0.0243096467 90 22.0851211 0 22.0851211"></polygon>
    </defs>
    <g id="Page-1" stroke="none" stroke-width="1" fill="none" fill-rule="evenodd">
        <g id="Codeia-UI-Landing-Page-2" transform="translate(-359.000000, -2633.000000)">
            <g id="Services-Section" transform="translate(0.000000, 2356.000000)">
                <g id="codeia-LogoGreen" transform="translate(359.000000, 277.000000)">
                    <g id="Group-7">
                        <mask id="mask-2" fill="white">
                            <use xlink:href="#path-1"></use>
                        </mask>
                        <g id="Clip-2"></g>
                        <path d="M8.1307,22.0879186 C2.8424,22.0879186 0.1322,19.1546511 0,13.351784 C0,7.58084756 2.6771,4.67941405 8.0646,4.58362247 C12.2952,4.58362247 14.8071,6.40125089 15.5673,10.0676665 L10.7748,10.0676665 C10.246,8.9200004 9.3205,8.3140921 7.9323,8.3140921 C5.6188,8.3140921 4.462,10.0039019 4.462,13.351784 C4.462,16.6996661 5.6849,18.389283 8.1307,18.3575455 C9.1553,18.3575455 10.0476,17.9428345 10.7748,17.1461147 C11.2045,16.7314037 11.7003,16.5400135 12.2622,16.5400135 L15.5673,16.5400135 C14.7741,19.9835907 12.1961,22.1837102 8.1307,22.0879186" id="Fill-1" fill="#57D284" mask="url(#mask-2)"></path>
                        <path d="M21.6949,13.351784 C21.7281,16.6357086 22.8848,18.2935879 25.1323,18.2935879 C27.3798,18.2935879 28.5036,16.572137 28.5366,13.2242549 C28.5366,9.94013736 27.4129,8.3140921 25.1655,8.3140921 C22.8517,8.3140921 21.6949,10.0039019 21.6949,13.351784 Z M33.1309,13.351784 C33.1309,19.1546511 30.4536,22.0879186 25.1655,22.0879186 C19.8771,22.0879186 17.233,19.1546511 17.233,13.351784 C17.233,7.48515244 19.8771,4.58362247 25.1655,4.58362247 C30.4536,4.58362247 33.1309,7.48515244 33.1309,13.351784 Z" id="Fill-3" fill="#57D284" mask="url(#mask-2)"></path>
                        <path d="M39.3247,13.2242549 C39.2916,16.6357086 40.4815,18.3575455 42.9933,18.3575455 C45.5053,18.3575455 46.7613,16.6357086 46.7613,13.2242549 C46.6621,9.97216435 45.4393,8.37785669 43.0596,8.37785669 C40.6798,8.37785669 39.4569,9.97216435 39.3247,13.2242549 Z M51.1241,2.16056808 L51.1241,14.4038515 C51.1241,19.4736669 48.3809,21.9922235 42.9272,21.9604859 C37.5069,21.8646943 34.7967,19.0272183 34.7967,13.4156451 C34.7967,7.67634974 37.1102,4.74308218 41.7705,4.58362247 C43.9519,4.58362247 45.6375,5.44458912 46.7613,7.19816356 L46.7613,0.0243096467 L48.9427,0.0243096467 C50.1327,0.0243096467 51.1241,1.01270901 51.1241,2.16056808 Z" id="Fill-4" fill="#57D284" mask="url(#mask-2)"></path>
                        <path d="M71.477,5.2243553 C72.8981,5.2243553 73.5923,5.89383525 73.5923,7.26491862 L73.5923,22.0909091 L69.1964,22.0909091 L69.1964,5.2243553 L71.477,5.2243553 Z M71.477,0.0243096467 C72.9313,0.0243096467 73.6253,0.725720127 73.5923,2.09680349 L73.5923,3.34026121 L69.1964,3.34026121 L69.1964,0.0243096467 L71.477,0.0243096467 Z" id="Fill-5" fill="#57D284" mask="url(#mask-2)"></path>
                        <path d="M85.7365,14.7863426 L85.7365,13.2242549 C84.7118,13.6388694 83.5219,13.9896229 82.233,14.2445848 C80.4812,14.5636006 79.5888,15.3603204 79.5888,16.603971 C79.688,17.9428345 80.4152,18.5807697 81.8033,18.5807697 C84.249,18.5807697 85.7365,17.1778523 85.7365,14.7863426 Z M80.1838,9.23872688 L75.7878,9.23872688 C76.3167,6.11426201 78.5973,4.58362247 82.6297,4.58362247 C87.4551,4.58362247 89.901,6.11426201 90,9.23872688 L90,14.9778293 C90,19.6329337 87.0915,21.7054276 82.3651,22.0239611 C78.1677,22.342977 75.2592,20.4618734 75.2592,16.7314037 C75.3582,12.6821112 78.3991,11.5982096 82.8279,11.183788 C84.7118,10.9605637 85.6704,10.41842 85.6704,9.4938817 C85.5711,8.5373164 84.6458,8.05903374 82.8279,8.05903374 C81.2745,8.05903374 80.4152,8.44162128 80.1838,9.23872688 Z" id="Fill-6" fill="#57D284" mask="url(#mask-2)"></path>
                        <path d="M56.6232949,11.5817577 L56.6232949,13.190861 C57.6469477,12.7636944 58.8357477,12.4025057 60.123556,12.1397869 C61.8736367,11.8112889 62.7652117,10.9906403 62.7652117,9.70963751 C62.6661034,8.33046292 61.9396756,7.67346707 60.5527589,7.67346707 C58.1093198,7.67346707 56.6232949,9.11842073 56.6232949,11.5817577 Z M62.1708617,17.2960914 L66.5626978,17.2960914 C66.0342868,20.5143973 63.7557951,22.0909091 59.7272228,22.0909091 C54.9062836,22.0909091 52.4626448,20.5143973 52.3636364,17.2960914 L52.3636364,11.3846192 C52.3636364,6.58970214 55.2695475,4.45486309 59.9914783,4.12676262 C64.1850979,3.79826469 67.0909091,5.73586588 67.0909091,9.57827808 C66.9920006,13.7492876 63.9539118,14.8656439 59.5291061,15.2926118 C57.6469477,15.5225404 56.6893338,16.080967 56.6893338,17.0331738 C56.7884421,18.0185682 57.7129866,18.5111164 59.5291061,18.5111164 C61.08117,18.5111164 61.9396756,18.1171375 62.1708617,17.2960914 Z" id="Fill-8" fill="#57D284" mask="url(#mask-2)"></path>
                    </g>
                </g>
            </g>
        </g>
    </g>
</svg>