<?xml version="1.0" encoding="UTF-8"?>
<svg width="92px" height="87px" viewBox="0 0 92 87" version="1.1" xmlns="http://www.w3.org/2000/svg" xmlns:xlink="http://www.w3.org/1999/xlink">
    <!-- Generator: Sketch 52.4 (67378) - http://www.bohemiancoding.com/sketch -->
    <title>icon-DigiMktg</title>
    <desc>Created with Sketch.</desc>
    <g id="Page-1" stroke="none" stroke-width="1" fill="none" fill-rule="evenodd">
        <g id="Codeia-UI-Landing-Page-2" transform="translate(-637.000000, -792.000000)" fill="#000000">
            <g id="Features-Section" transform="translate(0.000000, 544.000000)">
                <g id="icon-DigiMktg" transform="translate(637.000000, 248.000000)">
                    <path d="M12.3832055,52 C13.1469168,52 13.7657005,51.4140598 13.7657005,50.6908845 L13.7657005,24.9687186 C13.7657005,24.7763203 13.9312306,24.6195763 14.1344132,24.6195763 L24.6167947,24.6195763 C25.3805058,24.6195763 26,24.0329634 26,23.3097881 C26,22.5866128 25.3805058,22 24.6167947,22 L14.1344132,22 C12.4059392,22 11,23.3319879 11,24.9687186 L11,50.6908845 C11,51.4140598 11.6187838,52 12.3832055,52 Z" id="Path"></path>
                    <path d="M90.6333923,72.8260672 L86.1671752,72.8260672 L86.1671752,24.709552 C86.1671752,20.0296636 82.3263549,16.2228628 77.6053467,16.2228628 L66.0765686,16.2228628 C65.6238404,13.8832664 64.4832458,11.677242 62.7228698,9.93315409 C59.5769349,6.81508359 54.9457702,5.65328592 50.7090759,6.85612919 L44.1918945,0.396672617 C43.8893737,0.0968315309 43.4619141,-0.0450886751 43.0386657,0.0126533249 C42.6147155,0.0710911459 42.2427063,0.322929854 42.0335388,0.693035489 L33.2639466,16.2228628 L14.3946533,16.2228628 C9.67364511,16.2228628 5.83212276,20.0296636 5.83212276,24.709552 L5.83212276,72.8260672 L1.36660771,72.8260672 C0.612060547,72.8260672 0,73.4327065 0,74.1805704 L0,76.0791011 C0,82.1002744 4.94280997,87 11.0184936,87 L80.9815064,87 C87.05719,87 92,82.1002744 92,76.0791011 L92,74.1805704 C92,73.4327065 91.3886413,72.8260672 90.6333923,72.8260672 Z M60.7905273,11.8483811 C62.8499146,13.8888319 63.8185424,16.7425411 63.5075989,19.541291 L53.0288697,9.15537562 C55.8526306,8.84718611 58.7318421,9.80723456 60.7905273,11.8483811 Z M43.5363158,3.57735506 L69.1361693,28.9504617 L51.5731201,38.6935621 L33.7061462,20.9855378 L43.5363158,3.57735506 Z M54.9443665,47.9858571 L49.4063415,44.2054925 L52.1704407,41.4658759 L54.5793763,40.1294606 C55.9951172,42.5149723 56.129181,45.487644 54.9443665,47.9858571 Z M38.6356201,51.0503595 C38.1400756,51.5408192 37.4816895,51.8114415 36.7818909,51.8114415 C36.0813903,51.8114415 35.4230042,51.5408192 34.9274597,51.0503595 L21.2389222,37.4830662 C20.7433776,36.9919109 20.4710388,36.3393563 20.4710388,35.6450603 C20.4710388,34.9514601 20.7433776,34.2989055 21.2389222,33.8077502 L32.0089417,23.1331245 L49.4056396,40.3757338 L38.6356201,51.0503595 Z M47.4417115,46.152721 L54.6025391,51.0413156 C54.6046448,51.0427069 54.6067506,51.044794 54.6081543,51.0461855 C54.6102601,51.0475768 54.6116638,51.0475768 54.6130677,51.0489682 L61.5899964,55.8123389 C61.9128724,56.0321763 61.9865723,56.3431484 62.0013122,56.5087221 C62.0167542,56.6742955 62.0013122,56.993616 61.72406,57.2677169 L57.3905029,61.5635858 C57.0634154,61.8877761 56.5489196,61.9343871 56.1677857,61.6742001 L41.7282104,51.8156155 L47.4417115,46.152721 Z M89.2674866,76.0791011 C89.2674866,80.6073296 85.5502015,84.2909936 80.9815064,84.2909936 L11.0184936,84.2909936 C6.44979854,84.2909936 2.73251338,80.6073296 2.73251338,76.0791011 L2.73251338,75.5350736 L34.9513245,75.5350736 C35.1794434,78.5592262 37.7329713,80.9516947 40.8417054,80.9516947 L51.1582946,80.9516947 C54.2670287,80.9516947 56.8205566,78.5592262 57.0486755,75.5350736 L66.9665833,75.5350736 C67.7211303,75.5350736 68.332489,74.9284342 68.332489,74.1805704 C68.332489,73.4327065 67.7211303,72.8260672 66.9665833,72.8260672 L8.56533818,72.8260672 L8.56533818,24.709552 C8.56533818,21.5233041 11.1799316,18.9311733 14.3946533,18.9311733 L31.7344971,18.9311733 L30.9090576,20.3928123 L19.3065795,31.8925232 C18.2951355,32.8950085 17.7378235,34.2279453 17.7378235,35.6450603 C17.7378235,37.0628711 18.2951355,38.3958079 19.3065795,39.3982932 L32.9951172,52.9655868 C34.0065612,53.9680721 35.3514099,54.5197521 36.7818909,54.5197521 C37.8164978,54.5197521 38.805481,54.2296505 39.6568909,53.6904928 L54.617981,63.9045734 C55.2532044,64.3379867 55.9838867,64.5501712 56.7110596,64.5501712 C57.6635437,64.5501712 58.6090088,64.1863269 59.3228454,63.4781172 L63.6571045,59.182944 C64.4341126,58.4121225 64.8229675,57.3477208 64.7232972,56.2624487 C64.6229248,55.1771765 64.0459596,54.2004316 63.1405029,53.5819656 L57.2171325,49.5372398 C58.98172,46.1742874 58.87854,42.0801678 56.9637451,38.8069591 L72.0462646,30.4399281 C72.4196777,30.2326132 72.673767,29.8638991 72.7320251,29.4437039 C72.7909851,29.0235088 72.6477966,28.600531 72.345276,28.299994 L68.3577575,24.3477946 L77.6053467,24.3477946 C77.8060912,24.3477946 77.9696351,24.5098897 77.9696351,24.709552 L77.9696351,67.4094461 L14.0303649,67.4094461 L14.0303649,56.7264721 C14.0303649,55.9786083 13.4190064,55.3726646 12.6644593,55.3726646 C11.9092102,55.3726646 11.2978516,55.9786083 11.2978516,56.7264721 L11.2978516,68.7632534 C11.2978516,69.5111173 11.9092102,70.1177566 12.6644593,70.1177566 L79.3355407,70.1177566 C80.0907897,70.1177566 80.7021484,69.5111173 80.7021484,68.7632534 L80.7021484,24.709552 C80.7021484,23.0169447 79.3130798,21.6394839 77.6053467,21.6394839 L65.8814392,21.6394839 C66.1228942,20.7469172 66.2583619,19.8383496 66.2892455,18.9311733 L77.6053467,18.9311733 C80.8200684,18.9311733 83.4346618,21.5233041 83.4346618,24.709552 L83.4346618,72.8260672 L71.5212402,72.8260672 C70.7666931,72.8260672 70.1546325,73.4327065 70.1546325,74.1805704 C70.1546325,74.9284342 70.7666931,75.5343779 71.5212402,75.5343779 L89.2674866,75.5343779 L89.2674866,76.0791011 Z M37.6964721,75.5350736 L54.3035279,75.5350736 C54.0866394,77.0628028 52.7586364,78.2426885 51.1582946,78.2426885 L40.8417054,78.2426885 C39.2406615,78.2426885 37.9133606,77.0628028 37.6964721,75.5350736 Z" id="Shape" fill-rule="nonzero"></path>
                    <path d="M32.640522,30.3589986 C32.1618478,29.8803338 31.3858918,29.8803338 30.9072176,30.3589986 L25.3590056,35.9071012 C24.8803315,36.385766 24.8803315,37.1623366 25.3590056,37.6410013 C25.5983429,37.8803337 25.9120004,38 26.2256579,38 C26.5393155,38 26.8536029,37.8803337 27.09294,37.6410013 L32.640522,32.0928987 C33.119826,31.6142339 33.119826,30.8376634 32.640522,30.3589986 Z" id="Path"></path>
                    <path d="M36.6405432,34.3592242 C36.1618973,33.8799438 35.3853573,33.8805735 34.9067113,34.3592242 L29.3594568,39.9071632 C28.8801811,40.3858138 28.8801811,41.1617317 29.3594568,41.6403823 C29.5987797,41.8803374 29.9124189,42 30.2260578,42 C30.5396968,42 30.853336,41.8803374 31.0926589,41.6403823 L36.6405432,36.0930733 C37.1198189,35.6144226 37.1198189,34.8378748 36.6405432,34.3592242 Z" id="Path"></path>
                    <path d="M37.9070601,37.3589986 L32.3594781,42.9071012 C31.880174,43.385766 31.880174,44.1617068 32.3594781,44.6403716 C32.598815,44.8797039 32.9124727,45 33.2261303,45 C33.5397878,45 33.8534453,44.8803337 34.0927826,44.6403716 L39.6409944,39.0928987 C40.1196685,38.6136042 40.1196685,37.8376634 39.6409944,37.3589986 C39.1623202,36.8803338 38.3863641,36.8803338 37.9070601,37.3589986 Z" id="Path"></path>
                </g>
            </g>
        </g>
    </g>
</svg>