<?xml version="1.0" encoding="UTF-8"?>
<svg width="14px" height="14px" viewBox="0 0 14 14" version="1.1" xmlns="http://www.w3.org/2000/svg" xmlns:xlink="http://www.w3.org/1999/xlink">
    <!-- Generator: Sketch 52.4 (67378) - http://www.bohemiancoding.com/sketch -->
    <title>icon-message</title>
    <desc>Created with Sketch.</desc>
    <g id="Page-1" stroke="none" stroke-width="1" fill="none" fill-rule="evenodd">
        <g id="Codeia-UI-Landing-Page-2" transform="translate(-695.000000, -3132.000000)" fill="#57D284">
            <g id="Contact-Us" transform="translate(173.000000, 2853.000000)">
                <g id="icon-message" transform="translate(522.000000, 279.000000)">
                    <g id="Group-3">
                        <path d="M11.9466545,2.08062663 C10.6244241,0.761848564 8.86812042,0.0336292428 6.99758115,0.0336292428 C5.12704188,0.0336292428 3.37073822,0.761848564 2.04850785,2.08062663 C-0.502350785,4.62482507 -0.687026178,8.68954047 1.58522513,11.4441775 C1.27139791,12.0845953 0.90204712,12.5115039 0.482743455,12.7162768 C0.227628272,12.8419112 0.0840366492,13.1169399 0.125120419,13.397671 C0.169062827,13.6812167 0.38595288,13.9005379 0.670424084,13.9444021 C0.825743455,13.9677963 0.992973822,13.9825274 1.16588482,13.9825274 C2.02501571,13.9825274 2.92808901,13.6871018 3.68152356,13.1694674 C4.69597382,13.7133473 5.83653403,13.9999269 6.99758115,13.9999269 C8.86812042,13.9999269 10.6244241,13.274705 11.9466545,11.9559269 C13.2688848,10.6370026 13.9961518,8.88243342 13.9961518,7.01977546 C13.9961518,5.15697128 13.2688848,3.3994047 11.9466545,2.08062663 Z M11.3865812,11.3945013 C10.2138063,12.5642141 8.65408901,13.2074465 6.99758115,13.2074465 C5.88919895,13.2074465 4.80148691,12.9121671 3.8544712,12.3565901 C3.79290052,12.3214621 3.72260733,12.3010653 3.65517277,12.3010653 C3.5701466,12.3010653 3.48211518,12.3301619 3.41182199,12.3828721 C2.51461257,13.0759634 1.61157592,13.1783499 1.21572775,13.1870496 C1.68773298,12.8360627 2.08358115,12.2921828 2.415,11.5348668 C2.47653403,11.3945013 2.4500733,11.230705 2.34741885,11.1137702 C0.17782199,8.66896084 0.292204188,4.94349869 2.60839791,2.63335248 C3.78117277,1.46363969 5.34103665,0.820261097 6.99758115,0.820261097 C8.65408901,0.820261097 10.2138063,1.46363969 11.3865812,2.63335248 C13.8084346,5.05173368 13.8084346,8.98196867 11.3865812,11.3945013 Z" id="Fill-1"></path>
                    </g>
                    <path d="M9.92951832,4.71248042 L4.06564398,4.71248042 C3.84574869,4.71248042 3.66979581,4.88797389 3.66979581,5.10729504 C3.66979581,5.32661619 3.84574869,5.50210966 4.06564398,5.50210966 L9.92951832,5.50210966 C10.1494136,5.50210966 10.3253298,5.32661619 10.3253298,5.10729504 C10.3253298,4.88797389 10.1464084,4.71248042 9.92951832,4.71248042 Z" id="Fill-4"></path>
                    <path d="M9.92951832,6.62196345 L4.06564398,6.62196345 C3.84574869,6.62196345 3.66979581,6.79745692 3.66979581,7.01677807 C3.66979581,7.23609922 3.84574869,7.41159269 4.06564398,7.41159269 L9.92951832,7.41159269 C10.1494136,7.41159269 10.3253298,7.23609922 10.3253298,7.01677807 C10.3253298,6.79745692 10.1464084,6.62196345 9.92951832,6.62196345 Z" id="Fill-5"></path>
                    <path d="M9.92951832,8.53159269 L4.06564398,8.53159269 C3.84574869,8.53159269 3.66979581,8.70708616 3.66979581,8.92640731 C3.66979581,9.14572846 3.84574869,9.32107572 4.06564398,9.32107572 L9.92951832,9.32107572 C10.1494136,9.32107572 10.3253298,9.14572846 10.3253298,8.92640731 C10.3253298,8.70708616 10.1464084,8.53159269 9.92951832,8.53159269 Z" id="Fill-6"></path>
                </g>
            </g>
        </g>
    </g>
</svg>