<?xml version="1.0" encoding="UTF-8"?>
<svg width="24px" height="24px" viewBox="0 0 24 24" version="1.1" xmlns="http://www.w3.org/2000/svg" xmlns:xlink="http://www.w3.org/1999/xlink">
    <!-- Generator: Sketch 52.4 (67378) - http://www.bohemiancoding.com/sketch -->
    <title>icon-MapBorder</title>
    <desc>Created with Sketch.</desc>
    <g id="Page-1" stroke="none" stroke-width="1" fill="none" fill-rule="evenodd">
        <g id="Codeia-UI-Landing-Page-2" transform="translate(-1331.000000, -3575.000000)">
            <g id="Site" transform="translate(0.000000, 3563.000000)">
                <g id="icon-MapBorder" transform="translate(1331.000000, 12.000000)">
                    <rect id="Rectangle" fill="#FFFFFF" fill-rule="nonzero" x="0" y="0" width="24" height="24"></rect>
                    <g id="mapborder" transform="translate(4.000000, 4.000000)" fill="#1C113D">
                        <g id="Group-6">
                            <polyline id="Fill-1" points="0 6.26773333 1.4256 6.26773333 1.4256 1.60373333 6.0896 1.60373333 6.0896 0.1776 0 0.1776 0 6.26773333"></polyline>
                            <polyline id="Fill-2" points="9.73226667 0.1776 9.73226667 1.60373333 14.3962667 1.60373333 14.3962667 6.26773333 15.8224 6.26773333 15.8224 0.1776 9.73226667 0.1776"></polyline>
                            <polyline id="Fill-4" points="1.4256 9.9104 0 9.9104 0 16 6.0896 16 6.0896 14.5744 1.4256 14.5744 1.4256 9.9104"></polyline>
                            <polyline id="Fill-5" points="14.3962667 14.5744 9.73226667 14.5744 9.73226667 16 15.8224 16 15.8224 9.9104 14.3962667 9.9104 14.3962667 14.5744"></polyline>
                        </g>
                    </g>
                </g>
            </g>
        </g>
    </g>
</svg>