<?xml version="1.0" encoding="UTF-8"?>
<svg width="87px" height="87px" viewBox="0 0 87 87" version="1.1" xmlns="http://www.w3.org/2000/svg" xmlns:xlink="http://www.w3.org/1999/xlink">
    <!-- Generator: Sketch 52.4 (67378) - http://www.bohemiancoding.com/sketch -->
    <title>icon-WebDev</title>
    <desc>Created with Sketch.</desc>
    <g id="Page-1" stroke="none" stroke-width="1" fill="none" fill-rule="evenodd">
        <g id="Codeia-UI-Landing-Page-2" transform="translate(-956.000000, -792.000000)" fill="#000000">
            <g id="Features-Section" transform="translate(0.000000, 544.000000)">
                <g id="icon-WebDev" transform="translate(956.000000, 248.000000)">
                    <polygon id="Path" points="6 29 9 29 9 32 6 32"></polygon>
                    <polygon id="Path" points="12 29 15 29 15 32 12 32"></polygon>
                    <polygon id="Path" points="18 29 21 29 21 32 18 32"></polygon>
                    <path d="M18.8969318,52 L21,49.9020021 L17.5897762,46.5 L21,43.0979979 L18.8969318,41 L14.4351739,45.4510011 C13.854942,46.0305585 13.854942,46.9694415 14.4351739,47.5489989 L18.8969318,52 Z" id="Path"></path>
                    <path d="M38.1030682,41 L36,43.0979979 L39.4102238,46.5 L36,49.9020021 L38.1030682,52 L42.5648261,47.5489989 C43.145058,46.9694415 43.145058,46.0305585 42.5648261,45.4510011 L38.1030682,41 Z" id="Path"></path>
                    <polygon id="Path" points="25 52.9644125 30.4614616 39 33 40.0362694 27.5385384 54"></polygon>
                    <polygon id="Path" points="18 56 26 56 26 59 18 59"></polygon>
                    <polygon id="Path" points="14 62 20 62 20 65 14 65"></polygon>
                    <polygon id="Path" points="23 62 29 62 29 65 23 65"></polygon>
                    <polygon id="Path" points="8 68 26 68 26 71 8 71"></polygon>
                    <polygon id="Path" points="12 56 15 56 15 59 12 59"></polygon>
                    <polygon id="Path" points="32 62 38 62 38 65 32 65"></polygon>
                    <polygon id="Path" points="29 68 35 68 35 71 29 71"></polygon>
                    <polygon id="Path" points="38 68 44 68 44 71 38 71"></polygon>
                    <polygon id="Path" points="29 56 41 56 41 59 29 59"></polygon>
                    <path d="M82.65,46.4 L58,46.4 L58,40.6 L68.15,40.6 C70.5522705,40.6 72.5,38.6522705 72.5,36.25 L72.5,4.35 C72.5,1.94772954 70.5522705,0 68.15,0 L33.35,0 C30.9477295,0 29,1.94772954 29,4.35 L29,24.65 L4.35,24.65 C1.94772954,24.65 0,26.5977295 0,29 L0,72.5 C0,74.9022705 1.94772954,76.85 4.35,76.85 L43.5,76.85 L43.5,82.65 C43.5,85.0522705 45.4477295,87 47.85,87 L82.65,87 C85.0522705,87 87,85.0522705 87,82.65 L87,50.75 C87,48.3477295 85.0522705,46.4 82.65,46.4 Z M82.65,49.3 C83.4507569,49.3 84.1,49.9492431 84.1,50.75 L84.1,55.1 L58,55.1 L58,49.3 L82.65,49.3 Z M33.35,2.9 L68.15,2.9 C68.9507569,2.9 69.6,3.54924312 69.6,4.35 L69.6,8.7 L31.9,8.7 L31.9,4.35 C31.9,3.54924312 32.5492431,2.9 33.35,2.9 Z M31.9,11.6 L69.6,11.6 L69.6,36.25 C69.6,37.0507569 68.9507569,37.7 68.15,37.7 L58,37.7 L58,29 C58,26.5977295 56.0522705,24.65 53.65,24.65 L31.9,24.65 L31.9,11.6 Z M4.35,27.55 L53.65,27.55 C54.4507569,27.55 55.1,28.1992431 55.1,29 L55.1,33.35 L2.9,33.35 L2.9,29 C2.9,28.1992431 3.54924312,27.55 4.35,27.55 Z M2.9,72.5 L2.9,36.25 L55.1,36.25 L55.1,72.5 C55.1,73.3007569 54.4507569,73.95 53.65,73.95 L4.35,73.95 C3.54924312,73.95 2.9,73.3007569 2.9,72.5 Z M82.65,84.1 L47.85,84.1 C47.0492431,84.1 46.4,83.4507569 46.4,82.65 L46.4,76.85 L53.65,76.85 C56.0522705,76.85 58,74.9022705 58,72.5 L58,58 L84.1,58 L84.1,82.65 C84.1,83.4507569 83.4507569,84.1 82.65,84.1 Z" id="Shape" fill-rule="nonzero"></path>
                    <polygon id="Path" points="34 4 37 4 37 7 34 7"></polygon>
                    <polygon id="Path" points="39 4 42 4 42 7 39 7"></polygon>
                    <polygon id="Path" points="44 4 47 4 47 7 44 7"></polygon>
                </g>
            </g>
        </g>
    </g>
</svg>