<?xml version="1.0" encoding="UTF-8"?>
<svg width="10px" height="16px" viewBox="0 0 10 16" version="1.1" xmlns="http://www.w3.org/2000/svg" xmlns:xlink="http://www.w3.org/1999/xlink">
    <!-- Generator: Sketch 52.4 (67378) - http://www.bohemiancoding.com/sketch -->
    <title>icon-mobile</title>
    <desc>Created with Sketch.</desc>
    <g id="Page-1" stroke="none" stroke-width="1" fill="none" fill-rule="evenodd">
        <g id="Codeia-UI-Landing-Page-2" transform="translate(-961.000000, -3010.000000)" fill="#57D284">
            <g id="Contact-Us" transform="translate(173.000000, 2853.000000)">
                <g id="icon-mobile" transform="translate(788.000000, 157.000000)">
                    <g id="Group-3">
                        <path d="M9.99322034,14.7184122 L9.99322034,1.2538626 C9.99322034,0.573231552 9.41686441,0.0162849873 8.70512712,0.0162849873 L1.28805085,0.0162849873 C0.579661017,0.0162849873 0,0.57005598 0,1.2538626 L0,14.7215878 C0,15.4024224 0.576355932,15.959369 1.28805085,15.959369 L8.70512712,15.959369 C9.41355932,15.9560305 9.99322034,15.4024224 9.99322034,14.7184122 Z M0.83059322,11.946626 L9.15932203,11.946626 L9.15932203,2.88569975 L0.83059322,2.88569975 L0.83059322,11.946626 Z M1.28805085,0.814330789 L8.70512712,0.814330789 C8.95588983,0.814330789 9.16262712,1.00958779 9.16262712,1.2538626 L9.16262712,2.08769466 L0.83059322,2.08769466 L0.83059322,1.2538626 C0.83059322,1.00958779 1.03728814,0.814330789 1.28805085,0.814330789 Z M0.83059322,14.7184122 L0.83059322,12.7413333 L9.15932203,12.7413333 L9.15932203,14.7184122 C9.15932203,14.9593486 8.95588983,15.1581476 8.70165254,15.1581476 L1.28805085,15.1581476 C1.03728814,15.1581476 0.83059322,14.962687 0.83059322,14.7184122 Z" id="Fill-1"></path>
                    </g>
                    <path d="M5.83737288,13.5849771 L4.15254237,13.5849771 C3.92199153,13.5849771 3.73559322,13.7640712 3.73559322,13.9855878 C3.73559322,14.2069822 3.92199153,14.3861985 4.15254237,14.3861985 L5.83737288,14.3861985 C6.06775424,14.3861985 6.25432203,14.2069822 6.25432203,13.9855878 C6.25432203,13.7640712 6.06775424,13.5849771 5.83737288,13.5849771 Z" id="Fill-4"></path>
                </g>
            </g>
        </g>
    </g>
</svg>