<?xml version="1.0" encoding="UTF-8"?>
<svg width="26px" height="27px" viewBox="0 0 26 27" version="1.1" xmlns="http://www.w3.org/2000/svg" xmlns:xlink="http://www.w3.org/1999/xlink">
    <!-- Generator: Sketch 52.4 (67378) - http://www.bohemiancoding.com/sketch -->
    <title>icon-Phone</title>
    <desc>Created with Sketch.</desc>
    <g id="Page-1" stroke="none" stroke-width="1" fill="none" fill-rule="evenodd">
        <g id="Codeia-UI-Landing-Page-2" transform="translate(-173.000000, -3111.000000)" fill="#57D284">
            <g id="Contact-Us" transform="translate(173.000000, 2853.000000)">
                <g id="icon-Phone" transform="translate(0.000000, 258.000000)">
                    <path d="M21.8697871,15.5679552 C21.3044874,14.9796415 20.6228796,14.6650196 19.9005602,14.6650196 C19.1839216,14.6650196 18.4963417,14.9736695 17.908028,15.5622745 L16.0667619,17.3974958 C15.9151317,17.3158543 15.7637927,17.2401849 15.6181345,17.1645154 C15.4084594,17.0595686 15.2102185,16.960521 15.0411821,16.8555742 C13.3166611,15.7602969 11.7493782,14.3327003 10.2461849,12.4858263 C9.51789356,11.5651933 9.02855462,10.7902185 8.67322129,10.0039552 C9.15083473,9.56698039 9.59378151,9.11230812 10.0247843,8.67533333 C10.1881401,8.51234174 10.3511317,8.34337815 10.5144146,8.18009524 C11.7377255,6.95678431 11.7377255,5.37187675 10.5144146,4.14827451 L8.92353501,2.55768627 C8.74321008,2.37707003 8.55654902,2.19070028 8.38190476,2.00440336 C8.0322521,1.64309804 7.66526611,1.27014006 7.28662745,0.920487395 C6.72132773,0.361159664 6.04540056,0.064162465 5.33473389,0.064162465 C4.62377591,0.064162465 3.93648739,0.361159664 3.35385434,0.920487395 L3.34220168,0.932140056 L1.36103081,2.93071709 C0.615333333,3.67634174 0.190011204,4.5852493 0.0967170868,5.63988796 C-0.0429691877,7.34110364 0.458022409,8.9260112 0.842633053,9.96295238 C1.78628011,12.5091317 3.19654342,14.8686499 5.29977591,17.3974958 C7.85163585,20.4446667 10.922112,22.8508683 14.429563,24.5464034 C15.7694734,25.1814006 17.5583754,25.9329972 19.5565882,26.0610308 C19.6792325,26.0670028 19.8072661,26.0726835 19.9238655,26.0726835 C21.2698207,26.0726835 22.400056,25.5893894 23.2856583,24.6277535 C23.2914118,24.6161008 23.3030644,24.6104202 23.3090364,24.5987675 C23.6120056,24.2317815 23.9613669,23.8994622 24.3286443,23.5442017 C24.578958,23.3051765 24.8353165,23.0548627 25.0859216,22.7925322 C25.6628739,22.1925658 25.9655518,21.4932605 25.9655518,20.7766947 C25.9655518,20.0543754 25.656902,19.3607507 25.0685882,18.7781176 L21.8697871,15.5679552 Z M23.9556863,21.7029356 C23.9497143,21.7029356 23.9497143,21.7089076 23.9556863,21.7029356 C23.7283866,21.9479328 23.4953333,22.1692605 23.2447283,22.4138936 C22.8660896,22.7751989 22.481479,23.1538375 22.1203922,23.5791597 C21.5317871,24.2084762 20.8385266,24.5054734 19.9295462,24.5054734 C19.8422241,24.5054734 19.74893,24.5054734 19.6616078,24.4997927 C17.9313333,24.3890924 16.3231204,23.7131653 15.1171429,23.1365042 C11.8193669,21.539944 8.92353501,19.2734286 6.51733333,16.4011933 C4.53077311,14.0064258 3.20222409,11.792493 2.32259384,9.41535014 C1.78059944,7.9647395 1.58257703,6.83414006 1.66997199,5.76814006 C1.72823529,5.0862409 1.99027451,4.52123249 2.47393277,4.03764706 L4.46078431,2.05072269 C4.74612885,1.78278431 5.04909804,1.63712605 5.34638655,1.63712605 C5.71337255,1.63712605 6.01036975,1.8587451 6.19703081,2.04504202 L6.21436415,2.06244818 C6.5699888,2.39469468 6.90769748,2.73837535 7.2632493,3.10536134 C7.44393838,3.29194958 7.63030812,3.47831933 7.81660504,3.67066106 L9.40719328,5.2612493 C10.0247843,5.87884034 10.0247843,6.44982073 9.40719328,7.06741176 C9.23822969,7.23644818 9.07516527,7.40541176 8.90620168,7.56840336 C8.41686275,8.06939496 7.95061064,8.53564706 7.44393838,8.99002801 C7.43228571,9.00168067 7.42063305,9.00765266 7.41466106,9.01901401 C6.91366947,9.52029692 7.00696359,10.0096359 7.11161905,10.341591 L7.12931653,10.3942465 C7.54291317,11.3962297 8.12554622,12.3401681 9.01114846,13.4647227 L9.01690196,13.4704034 C10.6251148,15.4512829 12.3203585,16.9955518 14.1906106,18.1781513 C14.429563,18.3297815 14.6741961,18.4521345 14.9072493,18.5684426 C15.1171429,18.6734622 15.3151653,18.772437 15.4841289,18.8773838 C15.507507,18.8891092 15.5308123,18.9064426 15.5541176,18.9180952 C15.7521401,19.01707 15.9385098,19.0637535 16.1307787,19.0637535 C16.614437,19.0637535 16.9174062,18.7607843 17.016381,18.6618095 L19.008986,16.6692045 C19.2072269,16.4708908 19.5219216,16.2322297 19.8889076,16.2322297 C20.2502129,16.2322297 20.5472101,16.4592381 20.7278263,16.6575518 L23.9497143,19.8793669 C24.549972,20.4736527 24.549972,21.0856359 23.9556863,21.7029356 Z" id="Fill-1"></path>
                </g>
            </g>
        </g>
    </g>
</svg>