<?xml version="1.0" encoding="UTF-8"?>
<svg width="40px" height="13px" viewBox="0 0 40 13" version="1.1" xmlns="http://www.w3.org/2000/svg" xmlns:xlink="http://www.w3.org/1999/xlink">
    <!-- Generator: Sketch 52.4 (67378) - http://www.bohemiancoding.com/sketch -->
    <title>icon-GoogleWord</title>
    <desc>Created with Sketch.</desc>
    <defs>
        <polygon id="path-1" points="0.00956868431 0.119379464 9.7643639 0.119379464 9.7643639 10.1474141 0.00956868431 10.1474141"></polygon>
    </defs>
    <g id="Page-1" stroke="none" stroke-width="1" fill="none" fill-rule="evenodd">
        <g id="Codeia-UI-Landing-Page-2" transform="translate(-5.000000, -3792.000000)">
            <g id="Site" transform="translate(0.000000, 3563.000000)">
                <g id="icon-GoogleWord" transform="translate(5.000000, 229.000000)">
                    <g id="Group-3">
                        <mask id="mask-2" fill="white">
                            <use xlink:href="#path-1"></use>
                        </mask>
                        <g id="Clip-2"></g>
                        <path d="M5.08256615,4.68213281 L5.08256615,6.05276228 L8.35601305,6.05276228 C8.25570134,6.82154687 7.99957956,7.38413058 7.60997463,7.77977455 C7.13122146,8.25888839 6.38518304,8.78253013 5.08256615,8.78253013 C3.06740123,8.78253013 1.49191736,7.15574554 1.49191736,5.1390625 C1.49191736,3.12221987 3.06740123,1.49559487 5.08256615,1.49559487 C6.16813338,1.49559487 6.96424792,1.92443527 7.54873505,2.4760067 L8.51182312,1.51219308 C7.69912287,0.721064732 6.6079739,0.119379464 5.08256615,0.119379464 C2.32136281,0.119379464 0,2.37019308 0,5.13347656 C0,7.89676004 2.32136281,10.1474141 5.08256615,10.1474141 C6.57448351,10.1474141 7.69912287,9.65712835 8.57864444,8.74358817 C9.48049293,7.84106027 9.7643639,6.56523214 9.7643639,5.54013281 C9.7643639,5.22253237 9.74219645,4.92727567 9.69196086,4.68213281 L5.08256615,4.68213281" id="Fill-1" fill="#FFFFFE" mask="url(#mask-2)"></path>
                    </g>
                    <path d="M13.4831461,8.93325914 C12.5333432,8.93325914 11.713087,8.12224144 11.713087,6.96428571 C11.713087,5.7951126 12.5333432,4.99531229 13.4831461,4.99531229 C14.4327943,4.99531229 15.2530505,5.7951126 15.2530505,6.96428571 C15.2530505,8.12224144 14.4327943,8.93325914 13.4831461,8.93325914 Z M13.4831461,3.71428571 C11.7509616,3.71428571 10.3370787,5.07912226 10.3370787,6.96428571 C10.3370787,8.83262307 11.7509616,10.2142857 13.4831461,10.2142857 C15.2153305,10.2142857 16.6292135,8.83823177 16.6292135,6.96428571 C16.6292135,5.07912226 15.2153305,3.71428571 13.4831461,3.71428571 Z" id="Fill-4" fill="#FFFFFE"></path>
                    <path d="M27.7201821,8.87111579 C26.7853019,8.87111579 26.0734905,8.04204547 26.0734905,6.92558732 C26.0734905,5.79250343 26.7853019,4.98005885 27.7201821,4.98005885 C28.6442587,4.98005885 29.3667215,5.80912918 29.3667215,6.93667115 C29.3720471,8.05867121 28.6442587,8.87111579 27.7201821,8.87111579 Z M29.2763375,4.43283444 L29.2285588,4.43283444 C28.9259096,4.05693434 28.3416096,3.71428571 27.603322,3.71428571 C26.0629913,3.71428571 24.7191011,5.11258977 24.7191011,6.92558732 C24.7191011,8.72750105 26.0629913,10.1368889 27.603322,10.1368889 C28.3416096,10.1368889 28.9259096,9.79424031 29.2285588,9.40725638 L29.2763375,9.40725638 L29.2763375,9.85504302 C29.2763375,11.0820228 28.6442587,11.7397688 27.6297981,11.7397688 C26.8012789,11.7397688 26.2860601,11.1208162 26.0734905,10.5956011 L24.8943912,11.1041904 C25.2343199,11.9552701 26.1319205,13 27.6297981,13 C29.2179075,13 30.5617978,12.0271566 30.5617978,9.65600914 L30.5617978,3.88006811 L29.2763375,3.88006811 L29.2763375,4.43283444 Z" id="Fill-5" fill="#FFFFFE"></path>
                    <path d="M20.6741573,8.93325914 C19.7243544,8.93325914 18.9042528,8.12224144 18.9042528,6.96428571 C18.9042528,5.7951126 19.7243544,4.99531229 20.6741573,4.99531229 C21.6239602,4.99531229 22.4442164,5.7951126 22.4442164,6.96428571 C22.4442164,8.12224144 21.6239602,8.93325914 20.6741573,8.93325914 Z M20.6741573,3.71428571 C18.9419729,3.71428571 17.5280899,5.07912226 17.5280899,6.96428571 C17.5280899,8.83262307 18.9419729,10.2142857 20.6741573,10.2142857 C22.4063417,10.2142857 23.8202247,8.83823177 23.8202247,6.96428571 C23.8202247,5.07912226 22.4063417,3.71428571 20.6741573,3.71428571 Z" id="Fill-6" fill="#FFFFFE"></path>
                    <polygon id="Fill-7" fill="#FFFFFE" points="31.4606742 10.2142857 32.8089888 10.2142857 32.8089888 0.464285714 31.4606742 0.464285714"></polygon>
                    <path d="M37.2014132,4.93377686 C37.763256,4.93377686 38.243362,5.2302366 38.401522,5.6497672 L35.5374519,6.86364965 C35.5374519,5.49865286 36.4812541,4.93377686 37.2014132,4.93377686 Z M37.2995598,8.93325914 C36.5903407,8.93325914 36.0885111,8.60330746 35.7610951,7.94885255 L40,6.15310776 L39.8582499,5.78405545 C39.5963171,5.05684772 38.7889513,3.71428571 37.1468699,3.71428571 C35.5155721,3.71428571 34.1573034,5.02880423 34.1573034,6.96428571 C34.1573034,8.78791374 35.4993185,10.2142857 37.2995598,10.2142857 C38.7506616,10.2142857 39.5908471,9.3024717 39.9399867,8.77669634 L38.8597482,8.03827122 C38.4998249,8.57526397 38.008779,8.93325914 37.2995598,8.93325914 Z" id="Fill-8" fill="#FFFFFE"></path>
                </g>
            </g>
        </g>
    </g>
</svg>