<?xml version="1.0" encoding="UTF-8"?>
<svg width="34px" height="34px" viewBox="0 0 34 34" version="1.1" xmlns="http://www.w3.org/2000/svg" xmlns:xlink="http://www.w3.org/1999/xlink">
    <!-- Generator: Sketch 52.4 (67378) - http://www.bohemiancoding.com/sketch -->
    <title>icon-Up</title>
    <desc>Created with Sketch.</desc>
    <g id="Page-1" stroke="none" stroke-width="1" fill="none" fill-rule="evenodd">
        <g id="Codeia-UI-Landing-Page-2" transform="translate(-1283.000000, -2320.000000)">
            <g id="icon-Up" transform="translate(1283.000000, 2320.000000)">
                <rect id="Rectangle" fill="#57D284" fill-rule="nonzero" x="0" y="0" width="34" height="34"></rect>
                <path d="M16.8770559,9.44562359 C16.7690718,9.33333291 16.6237963,9.27267324 16.4828257,9.27272731 C16.3418032,9.27272731 16.1965278,9.32884561 16.0887511,9.44562359 L12.5286467,13.1566762 C12.3086329,13.3860152 12.3086329,13.7534874 12.5286467,13.9827723 C12.7485048,14.2120031 13.1011907,14.2120031 13.3210488,13.9827723 L15.9226257,11.266549 L15.9226257,23.1130258 C15.9226257,23.437409 16.1716323,23.6969697 16.4828257,23.6969697 C16.7940191,23.6969697 17.0429739,23.437409 17.0429739,23.1130258 L17.0429739,11.266549 L19.6486481,13.9827723 C19.8686619,14.2120031 20.2213996,14.2120031 20.4412059,13.9827723 C20.6610122,13.7534874 20.6610122,13.3860152 20.4412059,13.1566762 L16.8770559,9.44562359" id="Fill-1" fill="#FFFFFF" transform="translate(16.484848, 16.484848) scale(-1, 1) translate(-16.484848, -16.484848) "></path>
            </g>
        </g>
    </g>
</svg>