<?xml version="1.0" encoding="UTF-8"?>
<svg width="14px" height="14px" viewBox="0 0 14 14" version="1.1" xmlns="http://www.w3.org/2000/svg" xmlns:xlink="http://www.w3.org/1999/xlink">
    <!-- Generator: Sketch 52.4 (67378) - http://www.bohemiancoding.com/sketch -->
    <title>icon-subject</title>
    <desc>Created with Sketch.</desc>
    <g id="Page-1" stroke="none" stroke-width="1" fill="none" fill-rule="evenodd">
        <g id="Codeia-UI-Landing-Page-2" transform="translate(-959.000000, -3068.000000)" fill="#57D284">
            <g id="Contact-Us" transform="translate(173.000000, 2853.000000)">
                <g id="icon-subject" transform="translate(786.000000, 215.000000)">
                    <path d="M11.9499756,2.08062663 C10.6273777,0.761848564 8.87058577,0.0336292428 6.99952649,0.0336292428 C5.12846721,0.0336292428 3.37167528,0.761848564 2.04907733,2.08062663 C-0.502490452,4.62482507 -0.687217185,8.68954047 1.58566582,11.4441775 C1.27175135,12.0845953 0.902297881,12.5115039 0.482877648,12.7162768 C0.227691542,12.8419112 0.0840599998,13.1169399 0.125155191,13.397671 C0.169109815,13.6812167 0.386060164,13.9005379 0.670610452,13.9444021 C0.825973003,13.9677963 0.99324986,13.9825274 1.16620892,13.9825274 C2.02557866,13.9825274 2.92890301,13.6871018 3.68254702,13.1694674 C4.69727931,13.7133473 5.8381566,13.9999269 6.99952649,13.9999269 C8.87058577,13.9999269 10.6273777,13.274705 11.9499756,11.9559269 C13.2725736,10.6370026 14.0000428,8.88243342 14.0000428,7.01977546 C14.0000428,5.15697128 13.2725736,3.3994047 11.9499756,2.08062663 Z M11.3897466,11.3945013 C10.2166457,12.5642141 8.65649486,13.2074465 6.99952649,13.2074465 C5.89083616,13.2074465 4.80282173,12.9121671 3.85554275,12.3565901 C3.79395495,12.3214621 3.72364222,12.3010653 3.65618891,12.3010653 C3.5711391,12.3010653 3.48308321,12.3301619 3.41277048,12.3828721 C2.51531162,13.0759634 1.61202393,13.1783499 1.21606571,13.1870496 C1.68820217,12.8360627 2.08416038,12.2921828 2.41567137,11.5348668 C2.4772225,11.3945013 2.45075442,11.230705 2.34807143,11.1137702 C0.177871413,8.66896084 0.29228541,4.94349869 2.60912304,2.63335248 C3.78222394,1.46363969 5.34252146,0.820261097 6.99952649,0.820261097 C8.65649486,0.820261097 10.2166457,1.46363969 11.3897466,2.63335248 C13.8122733,5.05173368 13.8122733,8.98196867 11.3897466,11.3945013 Z" id="Fill-1"></path>
                </g>
            </g>
        </g>
    </g>
</svg>