<?xml version="1.0" encoding="UTF-8"?>
<svg width="13px" height="13px" viewBox="0 0 13 13" version="1.1" xmlns="http://www.w3.org/2000/svg" xmlns:xlink="http://www.w3.org/1999/xlink">
    <!-- Generator: Sketch 52.4 (67378) - http://www.bohemiancoding.com/sketch -->
    <title>icon-name</title>
    <desc>Created with Sketch.</desc>
    <g id="Page-1" stroke="none" stroke-width="1" fill="none" fill-rule="evenodd">
        <g id="Codeia-UI-Landing-Page-2" transform="translate(-695.000000, -3013.000000)" fill="#57D284">
            <g id="Contact-Us" transform="translate(173.000000, 2853.000000)">
                <g id="icon-name" transform="translate(522.000000, 160.000000)">
                    <path d="M6.4415,7.22993617 C8.35196939,7.22993617 9.90135714,5.61461702 9.90135714,3.62340426 C9.90135714,1.63219149 8.35196939,0.0276595745 6.4415,0.0276595745 C4.53142857,0.0276595745 2.98204082,1.64297872 2.98204082,3.62340426 C2.98204082,5.60382979 4.53142857,7.22993617 6.4415,7.22993617 Z M6.4415,0.968223404 C7.84258163,0.968223404 8.98883673,2.16311702 8.98883673,3.62340426 C8.98883673,5.08369149 7.84258163,6.27858511 6.4415,6.27858511 C5.04081633,6.27858511 3.89456122,5.08369149 3.89456122,3.62340426 C3.89456122,2.16311702 5.04081633,0.968223404 6.4415,0.968223404 Z" id="Fill-1"></path>
                    <path d="M0.456459184,12.8618404 L12.4693878,12.8618404 C12.7243469,12.8618404 12.9258469,12.6516277 12.9258469,12.3858191 C12.9258469,9.89645745 10.9838061,7.86098936 8.58517347,7.86098936 L4.34027551,7.86098936 C1.95252041,7.86098936 0,9.88567021 0,12.3858191 C0,12.6516277 0.201632653,12.8618404 0.456459184,12.8618404 Z M4.34027551,8.81234043 L8.58517347,8.81234043 C10.3257143,8.81234043 11.7585,10.162266 11.9812245,11.9104894 L0.944622449,11.9104894 C1.16747959,10.1730532 2.60026531,8.81234043 4.34027551,8.81234043 Z" id="Fill-3"></path>
                </g>
            </g>
        </g>
    </g>
</svg>