<?xml version="1.0" encoding="UTF-8"?>
<svg width="88px" height="88px" viewBox="0 0 88 88" version="1.1" xmlns="http://www.w3.org/2000/svg" xmlns:xlink="http://www.w3.org/1999/xlink">
    <!-- Generator: Sketch 52.4 (67378) - http://www.bohemiancoding.com/sketch -->
    <title>icon-BusinessSoln</title>
    <desc>Created with Sketch.</desc>
    <g id="Page-1" stroke="none" stroke-width="1" fill="none" fill-rule="evenodd">
        <g id="Codeia-UI-Landing-Page-2" transform="translate(-323.000000, -792.000000)" fill="#000000" fill-rule="nonzero">
            <g id="Features-Section" transform="translate(0.000000, 544.000000)">
                <g id="icon-BusinessSoln" transform="translate(323.000000, 248.000000)">
                    <path d="M62.0746067,0 L10.1051685,0 C4.52729596,0.00722997929 0.00721797753,4.53482376 0,10.121971 L0,62.0578043 C0.00721797753,67.6449515 4.52729596,72.1725453 10.1051685,72.1797753 L25.9847191,72.1797753 L25.9847191,69.2877836 L10.1051685,69.2877836 C6.12084494,69.2830841 2.8918827,66.0487528 2.88719101,62.0578043 L2.88719101,37.5958923 L12.1579613,37.5958923 C13.0134721,37.5331723 13.6564135,36.7877614 13.5937975,35.9306473 C13.5817074,35.7654423 13.5434521,35.6031293 13.4802948,35.4500345 C12.1972993,32.5255078 13.5239636,29.1129576 16.4436355,27.8278288 C19.3633074,26.5427 22.7701928,27.8715702 24.0531883,30.7960968 C24.7037085,32.2789656 24.7037085,33.9671657 24.0531883,35.4500345 C23.6966202,36.1972528 24.0124067,37.092505 24.7583847,37.449666 C24.9512852,37.542029 25.1618697,37.5919158 25.3755218,37.5960731 L34.6462921,37.5960731 L34.6462921,46.2720482 C34.1693643,46.190711 33.6864816,46.1505846 33.2026966,46.1520306 C28.418982,46.1504038 24.5398604,50.033445 24.538056,54.824933 C24.5367928,58.2770673 26.5789391,61.4013221 29.7380674,62.7809829 L30.8929438,60.1319185 C27.9685802,58.8576347 26.629104,55.4501454 27.9010921,52.5209193 C28.818858,50.4074156 30.9017858,49.0414918 33.2026966,49.0440223 C33.9982982,49.0438415 34.7850578,49.2103118 35.5124494,49.5327689 C36.2430892,49.8521532 37.0940888,49.5177667 37.4129429,48.785912 C37.4923407,48.6037166 37.5333027,48.4070611 37.5334831,48.2082367 L37.5334831,37.5958923 L44.8741663,37.5958923 C44.7920618,38.0734325 44.7509193,38.5572988 44.7514607,39.0418882 C44.7601222,43.1618919 47.6525463,46.7110887 51.6807191,47.5443438 L52.2581573,44.7116379 C49.5727088,44.1551103 47.6446065,41.7887381 47.6386517,39.0418882 C47.6384712,38.2449637 47.8046652,37.456896 48.126587,36.7282948 C48.4454411,35.9964402 48.1116097,35.1440256 47.3809699,34.8246413 C47.1990769,34.7451115 47.0027479,34.7040814 46.8042535,34.7039006 L37.5334831,34.7039006 L37.5334831,27.3510117 C38.0102306,27.4332527 38.4932937,27.4744636 38.9770787,27.4739213 C43.7607933,27.4739213 47.6386517,23.5896149 47.6386517,18.7979462 C47.6386517,14.0062774 43.7607933,10.121971 38.9770787,10.121971 C38.4932937,10.1214288 38.0102306,10.1626396 37.5334831,10.2448807 L37.5334831,2.89199172 L62.0746067,2.89199172 C66.0589303,2.8966912 69.2878926,6.13102244 69.2925843,10.121971 L69.2925843,34.7039006 L60.0218139,34.7039006 C59.2245883,34.7042621 58.5785793,35.3520683 58.5789402,36.1506195 C58.5791207,36.3494439 58.6200827,36.5460993 58.6994804,36.7282948 C59.0214022,37.456896 59.1875962,38.2449637 59.1874157,39.0418882 L62.0746067,39.0418882 C62.0751481,38.5572988 62.0340056,38.0734325 61.9519011,37.5958923 L70.7361798,37.5958923 C71.5334054,37.5958923 72.1797753,36.9484477 72.1797753,36.1498965 L72.1797753,10.121971 C72.1725573,4.53482376 67.6524793,0.00722997929 62.0746067,0 Z M38.9770787,13.0139627 C42.1661616,13.0139627 44.7514607,15.6035606 44.7514607,18.7979462 C44.7514607,21.9923318 42.1661616,24.5819296 38.9770787,24.5819296 C38.1814771,24.5821103 37.3947175,24.4156401 36.6673258,24.093183 C35.9366861,23.7737987 35.0856865,24.1081852 34.7668324,24.8400399 C34.6874346,25.0222353 34.6464726,25.2188908 34.6462921,25.4177152 L34.6462921,34.583883 L27.3157142,34.583883 C27.3880744,34.1455655 27.4256079,33.702187 27.4283146,33.2579048 C27.4283146,33.2318768 27.4283146,33.2087409 27.4283146,33.182713 C27.4283146,33.156685 27.4283146,33.1523471 27.4283146,33.1378871 C27.4283146,28.3462183 23.5504562,24.4619119 18.7667416,24.4619119 C13.983027,24.4619119 10.1051685,28.3462183 10.1051685,33.1378871 C10.1051685,33.1523471 10.1051685,33.168253 10.1051685,33.182713 C10.1051685,33.1971729 10.1051685,33.2318768 10.1051685,33.2579048 C10.1078753,33.702187 10.1454088,34.1455655 10.217769,34.583883 L2.88719101,34.583883 L2.88719101,10.121971 C2.8918827,6.13102244 6.12084494,2.8966912 10.1051685,2.89199172 L34.6462921,2.89199172 L34.6462921,12.1781771 C34.646653,12.9767283 35.2933838,13.6238115 36.0906094,13.62345 C36.2891038,13.6232692 36.4854328,13.5822391 36.6673258,13.5027093 C37.3947175,13.1802523 38.1814771,13.013782 38.9770787,13.0139627 Z" id="Shape"></path>
                    <path d="M84.9198431,62.2094257 L72.8137755,53.8836501 L68.1640202,41.4762454 C67.8866405,40.7317939 67.0575613,40.3530064 66.3121821,40.6300409 C66.2855421,40.6399285 66.2590821,40.6507151 66.2329822,40.6622207 L56.8729917,44.7970635 C56.1713524,45.1064576 55.8358328,45.9109542 56.1097925,46.6264617 C56.2653123,47.0291595 56.4107522,47.3340592 56.564832,47.6504645 C56.7189119,47.9668699 56.8614717,48.2631404 57.0357115,48.7305574 C58.1535104,51.7135768 56.6485319,55.0383499 53.667555,56.170398 C50.688018,57.2833898 47.3691814,55.773453 46.2546225,52.7974449 C45.9750828,52.0510159 45.8539429,51.254789 45.8987629,50.4592812 C45.9405228,49.6661105 45.3305034,48.9892547 44.5363443,48.9475467 C44.3372645,48.9371198 44.1383647,48.9680412 43.9518849,49.0383335 L33.946775,52.8021191 C33.2039158,53.0816704 32.8277162,53.9089985 33.1058159,54.6516522 L36.6971722,64.23442 C36.2210727,64.3210719 35.7536132,64.4499712 35.3003737,64.6198593 C30.8192782,66.2876391 28.5404805,71.2677875 30.2103388,75.7433054 C31.8801971,80.2188232 36.8665521,82.4947845 41.3476475,80.8270047 C41.808987,80.6553188 42.2548466,80.4446216 42.6803661,80.1970704 L45.2550835,87.0659431 C45.5340832,87.8098552 46.3638824,88.186845 47.1087216,87.9081926 C47.1096216,87.907833 47.1103416,87.9074735 47.1112416,87.9072937 L61.3787471,82.53847 C62.2749662,84.4624304 63.9241245,85.933176 65.9392225,86.6057171 L66.8493015,83.8731254 C65.6623827,83.4736636 64.6759837,82.6317737 64.0960243,81.5230965 L68.4376199,79.8907325 C69.8637585,83.8970356 73.6628346,86.5710204 77.9200103,86.5654473 L77.9200103,83.689035 C73.9537143,83.6647653 70.7443176,80.4593632 70.7200176,76.4980041 C70.7200176,76.1165199 70.5680977,75.750856 70.298098,75.4811923 L65.2840231,70.4733584 C64.5406239,69.7244125 64.456744,68.545443 65.0867433,67.6990587 C65.453583,67.2044955 66.0198624,66.8963599 66.6347418,66.8562699 C67.2505211,66.8044944 67.8569405,67.0310119 68.2878601,67.4732603 L78.3419298,77.5148159 L80.3780878,75.4811923 L77.4030508,72.5098584 C78.13601,70.3207288 78.0908301,67.9460706 77.2748909,65.7862445 L74.5763337,58.5880225 L83.2782448,64.5723985 C84.4316836,65.3810299 85.1189229,66.7000447 85.1200029,68.1075092 L85.1200029,86.6848185 L88,86.6848185 L88,68.1075092 C87.99802,65.7573006 86.8483612,63.5559462 84.9198431,62.2094257 Z M74.5777737,66.794427 C74.9755733,67.8504299 75.1195731,68.984815 74.9982532,70.1066158 L70.324018,65.4396368 C68.3946,63.4633617 65.2266032,63.4236313 63.2478652,65.350468 C61.2691272,67.2774845 61.2293473,70.4415381 63.1585853,72.4178132 C63.1879253,72.4478357 63.2176252,72.4776785 63.2478652,72.5069819 L67.8025806,77.0560281 L47.4525213,84.7115996 L44.7078841,77.3868155 C44.5370643,76.9316233 44.1475447,76.5936448 43.6725251,76.4879366 C43.5699252,76.4652849 43.4651653,76.4535995 43.3600455,76.4534197 C42.9833058,76.4530601 42.6215062,76.6002965 42.3520465,76.8633085 C40.0397688,79.045247 36.3940525,78.9418759 34.2093948,76.6322966 C32.024737,74.322897 32.1282369,70.6817185 34.4406945,68.49978 C34.984654,67.9865201 35.6232933,67.584182 36.3213326,67.3148779 C36.7797922,67.1451695 37.2585917,67.0369445 37.7454912,66.9927197 C38.0450109,66.9560454 38.3470506,66.945978 38.6483703,66.9625173 C39.4425294,67.0040455 40.1202288,66.3947855 40.1618087,65.6016147 C40.1722487,65.4044007 40.1418287,65.2071867 40.0725288,65.0223772 L36.3112526,54.9923273 L43.1685256,52.4136236 C44.0685247,57.0939061 48.5969601,60.1592628 53.2830753,59.2605637 C53.7618749,59.1686983 54.2320344,59.0365631 54.6885139,58.8654166 C59.1537694,57.173367 61.4107871,52.1959152 59.7385888,47.7279479 C59.6061089,47.3741492 59.486589,47.093699 59.3713892,46.8434511 L65.9953824,43.9138251 L74.5777737,66.794427 Z" id="Shape"></path>
                </g>
            </g>
        </g>
    </g>
</svg>