<?xml version="1.0" encoding="UTF-8"?>
<svg width="16px" height="8px" viewBox="0 0 16 8" version="1.1" xmlns="http://www.w3.org/2000/svg" xmlns:xlink="http://www.w3.org/1999/xlink">
    <!-- Generator: Sketch 52.4 (67378) - http://www.bohemiancoding.com/sketch -->
    <title>icon-mail</title>
    <desc>Created with Sketch.</desc>
    <g id="Page-1" stroke="none" stroke-width="1" fill="none" fill-rule="evenodd">
        <g id="Codeia-UI-Landing-Page-2" transform="translate(-694.000000, -3071.000000)" fill="#57D284">
            <g id="Contact-Us" transform="translate(173.000000, 2853.000000)">
                <g id="icon-mail" transform="translate(521.000000, 218.000000)">
                    <path d="M15.7019495,7.99353191 C15.7077834,7.99222695 15.7136751,7.99069504 15.7195668,7.98910638 C15.7247076,7.98802837 15.7296751,7.98689362 15.7346426,7.9853617 C15.7405343,7.98360284 15.7461372,7.98156028 15.7517978,7.97957447 C15.7567653,7.9778156 15.7617329,7.97628369 15.7667004,7.97407092 C15.77213,7.97202837 15.7770975,7.96941844 15.7822383,7.96697872 C15.7874368,7.96470922 15.7924043,7.96249645 15.7973718,7.95988652 C15.8023394,7.95721986 15.8070758,7.95432624 15.8118123,7.95143262 C15.8167798,7.94853901 15.8217473,7.94587234 15.8267148,7.94258156 C15.8316823,7.93923404 15.8364188,7.93548936 15.8413863,7.93191489 C15.8456606,7.92885106 15.849935,7.92595745 15.8540361,7.92283688 C15.8614874,7.91687943 15.8684765,7.91024113 15.8754657,7.90377305 C15.8767942,7.90246809 15.8781805,7.90156028 15.879278,7.90025532 C15.8806643,7.89889362 15.8817617,7.89758865 15.882917,7.89622695 C15.8896751,7.88958865 15.8959711,7.8827234 15.9020939,7.87540426 C15.9056751,7.87120567 15.908852,7.86678014 15.9122022,7.86235461 C15.9156101,7.85770213 15.9192491,7.8532766 15.9223682,7.84862411 C15.9257762,7.84351773 15.928722,7.83841135 15.9318412,7.83307801 C15.934556,7.82887943 15.9372708,7.82468085 15.9397545,7.82002837 C15.9427004,7.81492199 15.9451841,7.8093617 15.9476679,7.80402837 C15.9499206,7.79937589 15.9524043,7.7947234 15.954426,7.78984397 C15.9566787,7.78479433 15.9582383,7.77946099 15.9602599,7.77412766 C15.9621083,7.76879433 15.96413,7.76374468 15.9659206,7.75841135 C15.9675379,7.75307801 15.9686354,7.74774468 15.9699639,7.74224113 C15.9713502,7.7369078 15.9729097,7.73157447 15.974065,7.72624113 C15.9753935,7.71982979 15.9760866,7.71341844 15.9770108,7.70700709 C15.9776462,7.70229787 15.9785704,7.69787234 15.9790325,7.69321986 C15.98013,7.68192908 15.9808231,7.6706383 15.9808231,7.65934752 L15.9808231,0.382978723 C15.9808231,0.195007092 15.8255596,0.0425531915 15.6342527,0.0425531915 L4.7172852,0.0425531915 C4.7141083,0.0425531915 4.71116245,0.0429503546 4.70827437,0.0429503546 C4.70168953,0.043177305 4.69516245,0.0434042553 4.68840433,0.0440851064 C4.68320578,0.0443120567 4.67800722,0.0449929078 4.67280866,0.0456170213 C4.66697473,0.0462978723 4.66108303,0.0472056738 4.6552491,0.0482836879 C4.64981949,0.0491914894 4.64438989,0.0502695035 4.63896029,0.0516312057 C4.6333574,0.0529361702 4.6279278,0.0542978723 4.62249819,0.0558297872 C4.61712635,0.0573617021 4.61169675,0.0589503546 4.60649819,0.0607092199 C4.60106859,0.0624680851 4.59563899,0.0644539007 4.59026715,0.0664397163 C4.58529964,0.0684822695 4.58033213,0.0704680851 4.57536462,0.0726808511 C4.56993502,0.074893617 4.56450542,0.0775602837 4.55936462,0.0802269504 C4.55462816,0.0826666667 4.55006498,0.0848794326 4.54579061,0.0875460993 C4.54036101,0.0903829787 4.53522022,0.0935035461 4.53002166,0.0968510638 C4.52551625,0.0994609929 4.52141516,0.10235461 4.51714079,0.105248227 C4.51240433,0.108595745 4.50743682,0.112113475 4.50270036,0.115914894 C4.49842599,0.119432624 4.49415162,0.122780142 4.48981949,0.126297872 C4.48577617,0.130099291 4.48173285,0.133617021 4.47768953,0.137361702 C4.47312635,0.141617021 4.46862094,0.146269504 4.46434657,0.150695035 C4.46209386,0.152907801 4.45984116,0.154893617 4.45781949,0.157333333 C4.45643321,0.158638298 4.45556679,0.16022695 4.45441155,0.161531915 C4.44990614,0.166411348 4.44586282,0.171744681 4.44176173,0.176851064 C4.43887365,0.180595745 4.4359278,0.184567376 4.43298195,0.188368794 C4.42963177,0.193475177 4.42622383,0.198751773 4.42281588,0.203858156 C4.42010108,0.208283688 4.417213,0.212539007 4.41472924,0.216964539 C4.41178339,0.222070922 4.40929964,0.227347518 4.40681588,0.232453901 C4.40433213,0.237333333 4.40184838,0.241985816 4.39959567,0.246865248 C4.39734296,0.251971631 4.3953213,0.257304965 4.39347292,0.26258156 C4.39145126,0.267687943 4.3894296,0.272794326 4.38763899,0.277900709 C4.38607942,0.283234043 4.38446209,0.288567376 4.38313357,0.293843972 C4.38151625,0.299177305 4.37995668,0.304737589 4.37885921,0.310014184 C4.37770397,0.315120567 4.37677978,0.320453901 4.37591336,0.325560284 C4.37498917,0.33151773 4.3738917,0.337531915 4.37319856,0.343262411 C4.37250542,0.348141844 4.37227437,0.353248227 4.37187004,0.35812766 C4.37140794,0.364539007 4.37094585,0.371007092 4.37094585,0.37741844 C4.37094585,0.379177305 4.3707148,0.38093617 4.3707148,0.382978723 L4.3707148,2.4822695 C4.3707148,2.6701844 4.52574729,2.82269504 4.7172852,2.82269504 C4.90859206,2.82269504 5.0638556,2.6701844 5.0638556,2.4822695 L5.0638556,1.13895035 L8.14509747,3.81866667 C8.12903971,3.82978723 8.11350181,3.84192908 8.09906137,3.85611348 L5.0638556,6.8377305 L5.0638556,4.60062411 C5.0638556,4.41242553 4.90859206,4.26019858 4.7172852,4.26019858 C4.52574729,4.26019858 4.3707148,4.41242553 4.3707148,4.60062411 L4.3707148,5.01639716 L2.58010108,5.01639716 C2.38856318,5.01639716 2.23353069,5.16885106 2.23353069,5.3568227 C2.23353069,5.54496454 2.38856318,5.69724823 2.58010108,5.69724823 L4.3707148,5.69724823 L4.3707148,7.65957447 C4.3707148,7.84771631 4.52574729,8 4.7172852,8 L15.6342527,8 C15.6455162,8 15.6570108,7.99931915 15.6683321,7.99841135 C15.6737617,7.99778723 15.6787292,7.99687943 15.6841011,7.99597163 C15.6899928,7.99534752 15.6958267,7.99466667 15.7019495,7.99353191 Z M15.2876823,6.8377305 L12.2522455,3.85611348 C12.2502238,3.85435461 12.2482022,3.8528227 12.2461805,3.85083688 L14.528231,1.94921986 C14.6741949,1.82757447 14.6919856,1.61276596 14.5681444,1.46939007 C14.4444765,1.32601418 14.2258484,1.30825532 14.0796534,1.4301844 L10.1805054,4.67948936 L5.63153791,0.723404255 L15.2876823,0.723404255 L15.2876823,6.8377305 Z M8.58934296,4.33775887 C8.61394946,4.3133617 8.63405054,4.28629787 8.64981949,4.25753191 L9.94605054,5.38496454 C10.0114946,5.44192908 10.0936318,5.47052482 10.175769,5.47052482 C10.2554224,5.47052482 10.3353069,5.44346099 10.4000578,5.38961702 L11.7208953,4.28873759 C11.733083,4.3058156 11.7465993,4.32243972 11.7621949,4.33775887 L14.7974007,7.31931915 L5.55390614,7.31931915 L8.58934296,4.33775887 Z" id="Fill-1"></path>
                    <path d="M0.346570397,3.9195461 L6.19968231,3.9195461 C6.39122022,3.9195461 6.54625271,3.76726241 6.54625271,3.57912057 C6.54625271,3.39114894 6.39122022,3.23869504 6.19968231,3.23869504 L0.346570397,3.23869504 C0.155263538,3.23869504 0,3.39114894 0,3.57912057 C0,3.76726241 0.155263538,3.9195461 0.346570397,3.9195461 Z" id="Fill-2"></path>
                    <path d="M0.953068592,2.04363121 L3.58122744,2.04363121 C3.7725343,2.04363121 3.92779783,1.8911773 3.92779783,1.70320567 C3.92779783,1.51506383 3.7725343,1.36278014 3.58122744,1.36278014 L0.953068592,1.36278014 C0.761761733,1.36278014 0.606498195,1.51506383 0.606498195,1.70320567 C0.606498195,1.8911773 0.761761733,2.04363121 0.953068592,2.04363121 Z" id="Fill-3"></path>
                    <path d="M2.88808664,6.45390071 L0.346570397,6.45390071 C0.155263538,6.45390071 0,6.60635461 0,6.79432624 C0,6.98224113 0.155263538,7.13475177 0.346570397,7.13475177 L2.88808664,7.13475177 C3.0793935,7.13475177 3.23465704,6.98224113 3.23465704,6.79432624 C3.23465704,6.60635461 3.0793935,6.45390071 2.88808664,6.45390071 Z" id="Fill-4"></path>
                </g>
            </g>
        </g>
    </g>
</svg>