<?xml version="1.0" encoding="UTF-8"?>
<svg width="26px" height="27px" viewBox="0 0 26 27" version="1.1" xmlns="http://www.w3.org/2000/svg" xmlns:xlink="http://www.w3.org/1999/xlink">
    <!-- Generator: Sketch 52.4 (67378) - http://www.bohemiancoding.com/sketch -->
    <title>icon-email</title>
    <desc>Created with Sketch.</desc>
    <g id="Page-1" stroke="none" stroke-width="1" fill="none" fill-rule="evenodd">
        <g id="Codeia-UI-Landing-Page-2" transform="translate(-173.000000, -3218.000000)" fill="#57D284">
            <g id="Contact-Us" transform="translate(173.000000, 2853.000000)">
                <g id="icon-email" transform="translate(0.000000, 365.000000)">
                    <g id="Group-3">
                        <path d="M25.9673298,26.2444122 L25.9673298,9.70083206 C25.9673298,9.53038168 25.7548377,9.31596183 25.5479948,9.15657252 L21.2626911,6.01825191 L21.2626911,2.55016031 C21.2626911,2.20960305 20.9795497,1.97848855 20.6964084,1.97848855 L15.812356,1.97848855 L13.3241152,0.148534351 C13.1552513,0.0328396947 12.8721099,0.0328396947 12.697733,0.148534351 L10.2094241,1.97848855 L5.32509948,1.97848855 C4.98771204,1.97848855 4.75908901,2.26435878 4.75908901,2.55016031 L4.75908901,5.97991603 L0.419267016,9.16220611 C0.16321466,9.32159542 0,9.53038168 0,9.70619084 L0,26.3597634 C0,26.6839695 0.256052356,26.9093817 0.522722513,26.9314351 L25.3956702,26.9314351 C25.7604188,26.9258015 25.9673298,26.6399313 25.9673298,26.2444122 Z M24.8892147,10.728687 L24.8892147,25.2165573 L15.5183246,17.6426107 L24.8892147,10.728687 Z M24.4699476,9.72281679 L21.2626911,12.0806794 L21.2626911,7.34290076 L24.4699476,9.72281679 Z M12.9864555,1.23114504 L13.9828953,1.97312977 L11.9843665,1.97312977 L12.9864555,1.23114504 Z M20.1303979,3.12176336 L20.1303979,12.9161679 L12.9864555,18.1702443 L5.84251309,12.9161679 L5.84251309,3.12176336 L20.1303979,3.12176336 Z M1.08369634,10.728687 L10.4545864,17.6426107 L1.08369634,25.2605267 L1.08369634,10.728687 Z M4.76439791,12.1244427 L1.47560209,9.70619084 L4.76439791,7.29357252 L4.76439791,12.1244427 Z M2.10171204,25.8375573 L11.3638377,18.3132824 L12.6434869,19.2587634 C12.8883089,19.4455649 13.0733717,19.4455649 13.3241152,19.2587634 L14.6034921,18.3132824 L23.9200681,25.8375573 L2.10171204,25.8375573 Z" id="Fill-1"></path>
                    </g>
                    <polygon id="Fill-4" points="9.19113613 7.01312977 16.841534 7.01312977 16.841534 5.9248855 9.19113613 5.9248855"></polygon>
                    <polygon id="Fill-5" points="9.19113613 10.5032748 16.841534 10.5032748 16.841534 9.41503053 9.19113613 9.41503053"></polygon>
                    <polygon id="Fill-6" points="9.19113613 13.9933511 16.841534 13.9933511 16.841534 12.9051069 9.19113613 12.9051069"></polygon>
                </g>
            </g>
        </g>
    </g>
</svg>