<?xml version="1.0" encoding="UTF-8"?>
<svg width="26px" height="26px" viewBox="0 0 26 26" version="1.1" xmlns="http://www.w3.org/2000/svg" xmlns:xlink="http://www.w3.org/1999/xlink">
    <!-- Generator: Sketch 52.4 (67378) - http://www.bohemiancoding.com/sketch -->
    <title>icon-Location</title>
    <desc>Created with Sketch.</desc>
    <g id="Page-1" stroke="none" stroke-width="1" fill="none" fill-rule="evenodd">
        <g id="Codeia-UI-Landing-Page-2" transform="translate(-173.000000, -3003.000000)" fill="#57D284">
            <g id="Contact-Us" transform="translate(173.000000, 2853.000000)">
                <g id="icon-Location" transform="translate(0.000000, 150.000000)">
                    <path d="M13,24.8444219 C10.7778633,24.8444219 8.697,24.2288008 6.91808203,23.159957 L7.1540625,21.2454531 C7.21007422,20.7895898 7.04082031,20.3325586 6.70165234,20.0234531 C6.70165234,20.0234531 5.22366406,18.6714531 5.21096875,18.6524102 L3.72434766,16.3360742 C3.4620625,15.9270312 3.01544141,15.6831797 2.53007422,15.6831797 L1.46219531,15.6831797 C1.26171094,14.8207617 1.15557812,13.922543 1.15557812,13 C1.15557812,12.9003672 1.15689844,12.8011406 1.15933594,12.7021172 L3.58744141,9.14392578 C3.69433594,8.98675781 3.82890625,8.85503125 3.98841016,8.75158984 L5.23178906,7.94503125 C5.96786328,7.46778906 6.40757812,6.65889453 6.40757812,5.78180078 L6.40757812,3.16448437 C7.52923437,2.41017969 8.78657812,1.84300391 10.1343633,1.50683203 L10.2677148,2.15688281 C10.2751797,2.19369922 10.2696445,2.23224219 10.2520234,2.26535156 L9.282,4.09129297 C9.22136719,4.20529688 9.14280859,4.50510938 9.14280859,4.50510938 C9.06404687,4.90384375 9.17058594,5.30948438 9.43515625,5.61803125 C9.6874375,5.91230859 10.0488984,6.07795703 10.4340234,6.07795703 C10.4527617,6.07795703 11.0114062,6.10522656 11.4363437,5.61691406 L13.5770781,3.11487109 C13.5939883,3.09501562 13.6157734,3.07942578 13.6398438,3.06977734 L15.0137305,2.51869922 C15.2091367,2.44034375 15.3848906,2.31455859 15.5221016,2.15500391 L16.0407305,1.55197656 C16.953625,1.79471094 17.8238125,2.14327344 18.6365156,2.58486719 C18.6231094,2.61553906 17.9690977,5.31710156 17.9690977,5.31710156 C17.9675234,5.32400781 17.9616328,5.32908594 17.9545742,5.32984766 L15.3592969,5.59710937 C15.1042734,5.62341406 14.8611836,5.73472656 14.6748672,5.91063281 L12.9505391,7.53781641 C12.9485586,7.53964453 12.9461719,7.54101563 12.9434297,7.54172656 L11.5333867,7.92177344 C11.0733594,8.04573047 10.7367305,8.43121094 10.675793,8.90373047 C10.6148047,9.37625 10.8426602,9.83444922 11.2562227,10.0711914 C11.4138984,10.1613789 11.5931055,10.214293 11.7743437,10.2242461 L16.4709492,10.4814023 C16.4771953,10.4817578 16.4827305,10.4855664 16.4852695,10.4913047 L16.6403555,10.8383945 C16.6436055,10.8456563 16.6412695,10.8542383 16.6347187,10.8588594 L14.9624414,12.0576016 C14.9590898,12.0600391 14.9551289,12.0611055 14.9509141,12.0606484 L12.4222109,11.7851602 L10.5999766,11.0249648 C10.2171367,10.8651563 9.77366406,10.9212188 9.44251953,11.1710625 L7.56168359,12.5901953 C7.31534375,12.7760547 7.15446875,13.0464648 7.1085625,13.3515586 L6.80042187,15.3999727 C6.76101562,15.662207 6.81266016,15.9329727 6.94565625,16.1623516 L8.17065234,18.2745469 C8.36199609,18.6045234 8.70314453,18.821207 9.08319141,18.8543164 L11.2364687,19.0415977 C11.2428164,19.0421563 11.2484023,19.0463711 11.2506875,19.0524648 L11.7217852,20.3175781 L12.2119258,22.5591133 C12.2816484,22.8778164 12.4830469,23.1551836 12.7645781,23.3201719 L13.8312891,23.9450859 C14.015168,24.052793 14.2195117,24.10525 14.4226875,24.10525 C14.7225508,24.10525 15.0197734,23.9908398 15.2444297,23.7707031 L16.8894883,22.1582461 C17.1037852,21.9482148 17.2283516,21.6675469 17.2402852,21.3678359 L17.3474844,18.6871445 C17.3475859,18.6839961 17.3485508,18.681 17.3502773,18.6785117 L18.5856328,16.8059531 C18.9011367,16.3274922 18.8263867,15.6960273 18.4078984,15.3044531 L17.6498867,14.5951914 C17.645875,14.5913828 17.6439453,14.5857461 17.6448086,14.5802617 L17.7570352,13.8950195 C17.7579492,13.8894844 17.7584063,13.8861328 17.7667344,13.8824258 C17.7748086,13.8787187 17.7777539,13.8805977 17.7825781,13.8836445 L19.2358359,14.8213711 C19.7224219,15.1353516 20.3759258,15.0427266 20.7560234,14.6056523 L21.2952187,13.9855625 C21.5471953,13.695957 21.6413437,13.3007773 21.5471445,12.9286523 C21.4528945,12.5564766 21.1821289,12.2537695 20.8225977,12.118793 L20.7815664,12.1034062 C20.7762852,12.1014258 20.7736445,12.0996992 20.773543,12.0996992 C20.7703437,12.095332 20.769582,12.0822812 20.7718164,12.0779648 C20.7723242,12.077457 20.7747617,12.0754258 20.7796367,12.0728359 L21.6453047,11.6196133 C21.6509922,11.6166172 21.6579492,11.6172266 21.6630781,11.6210859 L22.3566992,12.1412383 C22.6720508,12.3777773 23.0820078,12.4400352 23.4533203,12.30775 C23.824582,12.1755664 24.1029141,11.8682383 24.197875,11.4856523 L24.3139609,11.0176016 C24.3154844,11.0113047 24.3206133,11.0063789 24.3271133,11.0051602 L24.6646562,10.9402617 C24.7826211,11.6094062 24.8444219,12.2975937 24.8444219,13 C24.8444219,19.5310781 19.5310273,24.8444219 13,24.8444219 Z M6.00716797,21.1039258 L5.84344922,22.4312969 C3.99140625,21.0225234 2.56501172,19.0818672 1.79445703,16.8387578 L2.53007422,16.8387578 C2.62021094,16.8387578 2.70344141,16.8844102 2.7519375,16.9600742 L4.23855859,19.2764102 C4.30558984,19.3804102 4.38531641,19.475168 4.47662109,19.5583477 L5.92282031,20.8774414 C5.98578906,20.9346211 6.01757812,21.0195781 6.00716797,21.1039258 Z M5.252,4.04817969 L5.252,5.78180078 C5.252,6.266 5.00931641,6.7120625 4.60316797,6.97551562 L3.35917969,7.78268359 C3.07089453,7.96986328 2.82648438,8.20848438 2.63295703,8.49219922 L1.50383594,10.1466523 C2.10107422,7.74099219 3.43489453,5.62310937 5.252,4.04817969 Z M10.3023984,4.63348438 L11.2725742,2.80749219 C11.4159297,2.53758984 11.4610742,2.22406641 11.3996797,1.92471094 L11.2679531,1.28253125 C11.8334531,1.19930078 12.4116992,1.15557812 13,1.15557812 C13.5933281,1.15557812 14.1764492,1.19996094 14.7466211,1.2845625 C14.7466211,1.2845625 14.6076328,1.43655078 14.5836133,1.44609766 L13.209625,1.99727734 C13.0133047,2.07608984 12.8367891,2.20263672 12.6991719,2.36346094 L10.5583867,4.86565625 C10.5292383,4.89967969 10.4868867,4.92024609 10.4420977,4.922125 C10.3741016,4.92517188 10.3321055,4.88759375 10.3124531,4.86575781 C10.236332,4.78110547 10.2949844,4.64760156 10.3023984,4.63348438 Z M19.0927344,5.58751172 L19.6642266,3.21338672 C21.9398359,4.76790234 23.6479141,7.09434375 24.4083125,9.81281641 L24.1090078,9.87040234 C23.6619805,9.956375 23.3021953,10.2974219 23.1925586,10.7393711 L23.0764219,11.2075234 C23.0751523,11.2127539 23.0742891,11.216207 23.0658086,11.2192539 C23.0574297,11.22225 23.0545352,11.2201172 23.050168,11.2168672 L22.3565469,10.6966641 C21.9969648,10.4270156 21.5074844,10.387457 21.1094609,10.5959141 L20.2438438,11.0490859 C19.828707,11.2664297 19.5886641,11.6920273 19.6175078,12.1597734 C19.6463516,12.6275703 19.9368203,13.0204648 20.3756719,13.18525 L20.4167031,13.2005859 C20.4214258,13.2024141 20.4249297,13.2036836 20.4270625,13.2121641 C20.4291953,13.2205937 20.4268086,13.2233867 20.4234063,13.2272461 L19.8842109,13.8473359 C19.8787773,13.8534805 19.8694336,13.8549531 19.8624258,13.8503828 L18.4091172,12.9126562 C18.0758398,12.6975977 17.6603477,12.6651992 17.2979219,12.8262266 C16.9353945,12.9871523 16.6807266,13.3169258 16.6166914,13.7082969 L16.5045664,14.3934883 C16.4411914,14.7802383 16.5742383,15.1710508 16.8604922,15.4388711 L17.6184531,16.1481328 C17.6244961,16.1537187 17.6255117,16.1627578 17.6209922,16.1695625 L16.3857383,18.0421719 C16.2681797,18.2203633 16.2014531,18.4273477 16.1929219,18.6407812 L16.0857227,21.3216758 C16.0855703,21.3258906 16.0838437,21.3299023 16.0806953,21.3328984 L14.4356367,22.9453555 C14.4302031,22.9506367 14.4218242,22.9517031 14.415375,22.9478945 L13.3486641,22.3230312 C13.3446523,22.3206445 13.3417578,22.3166836 13.340793,22.3121641 C13.340793,22.3121641 12.8232305,19.9638359 12.8038828,19.9117852 L12.3333945,18.648957 C12.1761758,18.2270156 11.7848555,17.9292344 11.336457,17.8902852 L9.18323047,17.7030547 C9.17779688,17.7025977 9.17297266,17.6995508 9.17017969,17.6947266 L7.94523438,15.5826836 C7.94335547,15.5793828 7.94264453,15.5754219 7.94315234,15.5717656 L8.25124219,13.5234023 C8.25190234,13.5190352 8.2541875,13.515125 8.25769141,13.5124844 L10.1384766,12.0934023 C10.1433008,12.0898477 10.1495977,12.0890859 10.155082,12.0913203 L11.9775195,12.8516172 C12.0812656,12.894832 12.1904961,12.9229141 12.3020625,12.9350508 L14.8261953,13.2094219 C15.1139219,13.2407031 15.4009375,13.1651406 15.6358008,12.99675 L17.3081289,11.7980586 C17.7587109,11.4751406 17.9216172,10.8733828 17.6955898,10.3671953 L17.5404531,10.0199531 C17.3604336,9.61695312 16.9748008,9.35162109 16.5342227,9.32755078 L11.8376172,9.07034375 C11.8350781,9.07019141 11.8325391,9.06942969 11.8303047,9.06816016 C11.8254805,9.06546875 11.8229414,9.06333594 11.8227383,9.06333594 L11.8227383,9.06338672 C11.8204023,9.05810547 11.8221289,9.04469922 11.8248711,9.04099219 C11.8255313,9.04053516 11.8284766,9.0390625 11.8342656,9.0374375 L13.2443086,8.65739062 C13.4307773,8.60711719 13.6035352,8.51048047 13.7438945,8.37809375 L15.4682227,6.75085937 C15.4708125,6.74837109 15.4742656,6.74684766 15.4779219,6.74644141 L18.0730469,6.47912891 C18.566793,6.42844922 18.9765469,6.07013672 19.0927344,5.58751172 Z M22.1923711,3.80762891 C19.7370469,1.35225391 16.4724219,0 13,0 C9.52757812,0 6.26300391,1.35225391 3.80762891,3.80762891 C1.35225391,6.26300391 0,9.52757812 0,13 C0,16.4724219 1.35225391,19.7369961 3.80762891,22.1923711 C6.26300391,24.6477461 9.52757812,26 13,26 C16.4724219,26 19.7370469,24.6477461 22.1923711,22.1923711 C24.6477461,19.7369961 26,16.4724219 26,13 C26,9.52757812 24.6477461,6.26300391 22.1923711,3.80762891 Z" id="Fill-1"></path>
                </g>
            </g>
        </g>
    </g>
</svg>