<?xml version="1.0" encoding="UTF-8"?>
<svg width="16px" height="16px" viewBox="0 0 16 16" version="1.1" xmlns="http://www.w3.org/2000/svg" xmlns:xlink="http://www.w3.org/1999/xlink">
    <!-- Generator: Sketch 52.4 (67378) - http://www.bohemiancoding.com/sketch -->
    <title>icon-linkedinActive</title>
    <desc>Created with Sketch.</desc>
    <g id="Page-1" stroke="none" stroke-width="1" fill="none" fill-rule="evenodd">
        <g id="Codeia-UI-Landing-Page-2" transform="translate(-173.000000, -4090.000000)" fill="#57D284">
            <g id="Footer-Section" transform="translate(0.000000, 3809.000000)">
                <g id="icon-linkedinActive" transform="translate(173.000000, 281.000000)">
                    <path d="M-3.55271368e-15,-3.55271368e-15 L16,-3.55271368e-15 L16,16 L-3.55271368e-15,16 L-3.55271368e-15,-3.55271368e-15 Z M4.54411923,13.5683901 C4.74788856,13.5683901 4.91303861,13.403205 4.91307372,13.1994707 L4.91307372,6.5013791 C4.91307372,6.29760977 4.74788856,6.13242461 4.54411923,6.13242461 L2.97403512,6.13242461 C2.77026579,6.13242461 2.60508063,6.29760977 2.60508063,6.5013791 L2.60508063,13.1994356 C2.60508063,13.403205 2.77026579,13.5683901 2.97403512,13.5683901 L4.54411923,13.5683901 Z M13.5828899,8.48507563 C13.5828899,7.08087885 12.4445693,5.94252311 11.0403374,5.94252311 L10.6376437,5.94252311 C9.86940103,5.94252311 9.19068486,6.32583695 8.78244403,6.91172644 C8.73792654,6.97558867 8.69670924,7.04190849 8.65886236,7.11036993 C8.64576691,7.10840386 8.63800795,7.10738572 8.63783241,7.1077368 L8.63783241,6.28556758 C8.63783241,6.20099137 8.56926564,6.1323895 8.48465432,6.1323895 L6.52577946,6.1323895 C6.44120325,6.1323895 6.37260138,6.20095627 6.37260138,6.28556758 L6.37260138,13.4152823 C6.37260138,13.4998585 6.44113304,13.5684252 6.52570925,13.5684603 L8.52727596,13.5689519 C8.61188728,13.568987 8.68048915,13.5003851 8.68048915,13.4157738 L8.68048915,9.29674742 C8.68048915,8.58474846 9.24836801,7.9935576 9.96033186,7.98551777 C10.3237743,7.98141009 10.6532669,8.12703985 10.8907404,8.36465371 C11.1250891,8.59886205 11.2699816,8.92270221 11.2699816,9.28024646 L11.2699816,13.4163004 C11.2699816,13.5008766 11.3385484,13.5694434 11.4230895,13.5694785 L13.4296065,13.56997 C13.5142178,13.5700051 13.5828197,13.5014032 13.5828197,13.4167919 L13.5828197,8.48507563 L13.5828899,8.48507563 Z M3.76555468,2.43003 C3.02385398,2.42946826 2.41711009,3.03052459 2.41711009,3.76727499 C2.41696966,4.5269161 3.04354981,5.12242529 3.75653181,5.10799573 C4.4594728,5.12474245 5.09942927,4.54352238 5.10118469,3.77236572 C5.10276457,3.03589618 4.49837294,2.43062684 3.76555468,2.43003 Z" id="Combined-Shape"></path>
                </g>
            </g>
        </g>
    </g>
</svg>