<?xml version="1.0" encoding="UTF-8"?>
<svg width="31px" height="31px" viewBox="0 0 31 31" version="1.1" xmlns="http://www.w3.org/2000/svg" xmlns:xlink="http://www.w3.org/1999/xlink">
    <!-- Generator: Sketch 52.4 (67378) - http://www.bohemiancoding.com/sketch -->
    <title>icon-Search</title>
    <desc>Created with Sketch.</desc>
    <g id="Page-1" stroke="none" stroke-width="1" fill="none" fill-rule="evenodd">
        <g id="Codeia-UI-Landing-Page-2" transform="translate(-643.000000, -1873.000000)">
            <g id="Portfolio-Section" transform="translate(173.000000, 1646.000000)">
                <g id="icon-Search" transform="translate(470.000000, 227.000000)">
                    <rect id="Rectangle" fill="#57D284" fill-rule="nonzero" x="0" y="0" width="31" height="31"></rect>
                    <g id="magnifying-glass-browser" transform="translate(6.000000, 5.000000)" fill="#FFFFFF">
                        <path d="M13.891548,13.6699054 C15.2092238,12.2433122 16.0313844,10.332885 16.0313844,8.22937221 C16.0313844,3.81640641 12.4405792,0.2136 8.01577221,0.2136 C3.59075189,0.2136 0,3.81640641 0,8.22937221 C0,12.6420713 3.59075189,16.2449311 8.01577221,16.2449311 C9.81722876,16.2449311 11.4733911,15.6526064 12.8154426,14.649148 L18.7758134,20.6095188 C18.9210009,20.7545463 19.1022987,20.8270334 19.2835431,20.8270334 C19.4650542,20.8270334 19.6584065,20.7545463 19.7915396,20.6095188 C20.0694868,20.3313582 20.0694868,19.8719532 19.7915396,19.5819514 L13.891548,13.6699054 Z M1.45075551,8.22937221 C1.45075551,4.61440461 4.3887501,1.66435551 8.01577221,1.66435551 C11.6307398,1.66435551 14.5805756,4.6023501 14.5805756,8.22937221 C14.5805756,11.8563943 11.6427943,14.7941756 8.01577221,14.7941756 C4.3887501,14.7941756 1.45075551,11.8442865 1.45075551,8.22937221 Z" id="Fill-1"></path>
                    </g>
                </g>
            </g>
        </g>
    </g>
</svg>