<?xml version="1.0" encoding="UTF-8"?>
<svg width="82px" height="21px" viewBox="0 0 82 21" version="1.1" xmlns="http://www.w3.org/2000/svg" xmlns:xlink="http://www.w3.org/1999/xlink">
    <!-- Generator: Sketch 52.4 (67378) - http://www.bohemiancoding.com/sketch -->
    <title>logo-CodeiaNavi</title>
    <desc>Created with Sketch.</desc>
    <defs>
        <polygon id="path-1" points="0 0.0222804464 82 0.0222804464 82 20.2416087 0 20.2416087"></polygon>
    </defs>
    <g id="Page-1" stroke="none" stroke-width="1" fill="none" fill-rule="evenodd">
        <g id="Codeia-UI-Landing-Page-2" transform="translate(-22.000000, -15.000000)">
            <g id="Navigation">
                <g id="logo-CodeiaNavi" transform="translate(22.000000, 15.000000)">
                    <g id="Group-7">
                        <mask id="mask-2" fill="white">
                            <use xlink:href="#path-1"></use>
                        </mask>
                        <g id="Clip-2"></g>
                        <path d="M7.40797111,20.2441727 C2.58974222,20.2441727 0.120448889,17.5557539 0,12.2372699 C0,6.94805111 2.43913556,4.2888091 7.34774667,4.20101353 C11.2022933,4.20101353 13.4909133,5.86691897 14.18354,9.22728772 L9.81704,9.22728772 C9.33524444,8.17542078 8.49201111,7.62008949 7.22720667,7.62008949 C5.11935111,7.62008949 4.06537778,9.16884576 4.06537778,12.2372699 C4.06537778,15.3056941 5.17957556,16.8542735 7.40797111,16.8251852 C8.34149556,16.8251852 9.15448,16.4450914 9.81704,15.7148763 C10.2085444,15.3347825 10.6602733,15.1593682 11.1722267,15.1593682 L14.18354,15.1593682 C13.4608467,18.3154995 11.1120022,20.3319683 7.40797111,20.2441727" id="Fill-1" fill="#1C113D" mask="url(#mask-2)"></path>
                        <path d="M19.7664644,12.2372699 C19.7967133,15.2470753 20.8505956,16.7665664 22.8983178,16.7665664 C24.94604,16.7665664 25.9699467,15.1888102 26.0000133,12.120386 C26.0000133,9.1104038 24.9761978,7.62008949 22.9285667,7.62008949 C20.8204378,7.62008949 19.7664644,9.16884576 19.7664644,12.2372699 Z M30.1859311,12.2372699 C30.1859311,17.5557539 27.7466133,20.2441727 22.9285667,20.2441727 C18.1102467,20.2441727 15.7011778,17.5557539 15.7011778,12.2372699 C15.7011778,6.86034395 18.1102467,4.20101353 22.9285667,4.20101353 C27.7466133,4.20101353 30.1859311,6.86034395 30.1859311,12.2372699 Z" id="Fill-3" fill="#1C113D" mask="url(#mask-2)"></path>
                        <path d="M35.8291711,12.120386 C35.7990133,15.2470753 36.8831444,16.8251852 39.1716733,16.8251852 C41.4603844,16.8251852 42.60474,15.2470753 42.60474,12.120386 C42.5143578,9.1397574 41.4002511,7.67853146 39.23208,7.67853146 C37.0638178,7.67853146 35.94962,9.1397574 35.8291711,12.120386 Z M46.5797356,1.98021888 L46.5797356,13.2015181 C46.5797356,17.8481406 44.0803756,20.1564656 39.1114489,20.1273772 C34.1729533,20.0395816 31.70366,17.4389584 31.70366,12.2958003 C31.70366,7.03558143 33.8115156,4.34716265 38.0575667,4.20101353 C40.0450644,4.20101353 41.5808333,4.99011267 42.60474,6.59731091 L42.60474,0.0222804464 L44.5922378,0.0222804464 C45.67646,0.0222804464 46.5797356,0.928175104 46.5797356,1.98021888 Z" id="Fill-4" fill="#1C113D" mask="url(#mask-2)"></path>
                        <path d="M65.1234889,4.78826244 C66.4182689,4.78826244 67.0507622,5.40185886 67.0507622,6.65849372 L67.0507622,20.2469136 L63.0456089,20.2469136 L63.0456089,4.78826244 L65.1234889,4.78826244 Z M65.1234889,0.0222804464 C66.4485178,0.0222804464 67.0808289,0.665142056 67.0507622,1.92177692 L67.0507622,3.06143943 L63.0456089,3.06143943 L63.0456089,0.0222804464 L65.1234889,0.0222804464 Z" id="Fill-5" fill="#1C113D" mask="url(#mask-2)"></path>
                        <path d="M78.1154778,13.5520815 L78.1154778,12.120386 C77.1818622,12.5003914 76.0977311,12.8218664 74.9234,13.0555459 C73.3273156,13.3479325 72.51424,14.0781476 72.51424,15.217987 C72.6046222,16.4450914 73.2671822,17.0297763 74.5318956,17.0297763 C76.7602,17.0297763 78.1154778,15.7439646 78.1154778,13.5520815 Z M73.0563511,8.46754219 L69.0511067,8.46754219 C69.5329933,5.60388592 71.6108733,4.20101353 75.2848378,4.20101353 C79.6813133,4.20101353 81.9098,5.60388592 82,8.46754219 L82,13.7275842 C82,17.9941129 79.3500333,19.8936094 75.0437578,20.1855539 C71.21946,20.4779406 68.5694933,18.7538584 68.5694933,15.3347825 C68.6596933,11.6234967 71.4302911,10.6300717 75.46542,10.2502431 C77.1818622,10.0456521 78.0552533,9.54876274 78.0552533,8.70139846 C77.96478,7.82468058 77.1217289,7.38632163 75.46542,7.38632163 C74.0501,7.38632163 73.2671822,7.73697342 73.0563511,8.46754219 Z" id="Fill-6" fill="#1C113D" mask="url(#mask-2)"></path>
                        <path d="M52.3990821,10.7901189 L52.3990821,12.2380911 C53.3138324,11.8536998 54.3761604,11.5286795 55.5269637,11.2922686 C57.0908599,10.9966655 57.8875836,10.2581943 57.8875836,9.10546754 C57.7990191,7.8643996 57.1498732,7.27319346 55.9105053,7.27319346 C53.7270145,7.27319346 52.3990821,8.57345355 52.3990821,10.7901189 Z M57.3564642,15.9322354 L61.2810696,15.9322354 C60.8088742,18.8282692 58.7727826,20.2469136 55.1727949,20.2469136 C50.8647372,20.2469136 48.6810679,18.8282692 48.5925926,15.9322354 L48.5925926,10.6127213 C48.5925926,6.29795369 51.1893548,4.37689139 55.4089372,4.08164597 C59.1564135,3.7860429 61.7530864,5.52961818 61.7530864,8.98726208 C61.6647004,12.7405985 58.9498224,13.7451661 54.9957551,14.1293785 C53.3138324,14.3362828 52.4580954,14.8387901 52.4580954,15.6956456 C52.5466599,16.5823654 53.3728456,17.0255912 54.9957551,17.0255912 C56.3827007,17.0255912 57.1498732,16.6710642 57.3564642,15.9322354 Z" id="Fill-8" fill="#1C113D" mask="url(#mask-2)"></path>
                    </g>
                </g>
            </g>
        </g>
    </g>
</svg>