<?xml version="1.0" encoding="UTF-8"?>
<svg width="230px" height="59px" viewBox="0 0 230 59" version="1.1" xmlns="http://www.w3.org/2000/svg" xmlns:xlink="http://www.w3.org/1999/xlink">
    <!-- Generator: Sketch 52.4 (67378) - http://www.bohemiancoding.com/sketch -->
    <title>codeia-LogoText-white-01</title>
    <desc>Created with Sketch.</desc>
    <defs>
        <polygon id="path-1" points="0 0.0649257642 230 0.0649257642 230 58.9845415 0 58.9845415"></polygon>
    </defs>
    <g id="Page-1" stroke="none" stroke-width="1" fill="none" fill-rule="evenodd">
        <g id="Codeia-UI-Landing-Page-2" transform="translate(-568.000000, -192.000000)">
            <g id="Banner-Section" transform="translate(0.000000, 50.000000)">
                <g id="codeia-LogoText-white-01" transform="translate(568.000000, 142.000000)">
                    <g id="Group-7">
                        <mask id="mask-2" fill="white">
                            <use xlink:href="#path-1"></use>
                        </mask>
                        <g id="Clip-2"></g>
                        <path d="M20.7784556,58.9920131 C7.26391111,58.9920131 0.337844444,51.1578952 0,35.6597031 C0,20.2467904 6.84147778,12.4976943 20.6095333,12.2418559 C31.4210667,12.2418559 37.8403667,17.096345 39.7831,26.8885415 L27.5356,26.8885415 C26.1842222,23.8233755 23.8190556,22.2051266 20.2714333,22.2051266 C14.3591556,22.2051266 11.4028889,26.7182402 11.4028889,35.6597031 C11.4028889,44.6011659 14.5280778,49.1137642 20.7784556,49.029 C23.3968778,49.029 25.6772,47.9213974 27.5356,45.7935328 C28.6337222,44.6859301 29.9007667,44.1747686 31.3367333,44.1747686 L39.7831,44.1747686 C37.7560333,53.3718122 31.1678111,59.2478515 20.7784556,58.9920131" id="Fill-1" fill="#FFFFFE" mask="url(#mask-2)"></path>
                        <path d="M55.4425222,35.6597031 C55.5273667,44.4303493 58.4833778,48.8581834 64.2269889,48.8581834 C69.9706,48.8581834 72.8425333,44.2605633 72.9268667,35.3191004 C72.9268667,26.5479389 70.0551889,22.2051266 64.3118333,22.2051266 C58.3987889,22.2051266 55.4425222,26.7182402 55.4425222,35.6597031 Z M84.6678556,35.6597031 C84.6678556,51.1578952 77.8258667,58.9920131 64.3118333,58.9920131 C50.7970333,58.9920131 44.0398889,51.1578952 44.0398889,35.6597031 C44.0398889,19.9912096 50.7970333,12.2418559 64.3118333,12.2418559 C77.8258667,12.2418559 84.6678556,19.9912096 84.6678556,35.6597031 Z" id="Fill-3" fill="#FFFFFE" mask="url(#mask-2)"></path>
                        <path d="M100.496456,35.3191004 C100.411867,44.4303493 103.452722,49.029 109.871767,49.029 C116.291322,49.029 119.5011,44.4303493 119.5011,35.3191004 C119.247589,26.633476 116.122656,22.3754279 110.0412,22.3754279 C103.959489,22.3754279 100.8343,26.633476 100.496456,35.3191004 Z M130.650478,5.77040611 L130.650478,38.4695459 C130.650478,52.009917 123.640078,58.7364323 109.702844,58.6516681 C95.8509667,58.3958297 88.9249,50.8175502 88.9249,35.830262 C88.9249,20.5018559 94.8371778,12.667738 106.746833,12.2418559 C112.321522,12.2418559 116.629167,14.54131 119.5011,19.2247249 L119.5011,0.0649257642 L125.075789,0.0649257642 C128.1169,0.0649257642 130.650478,2.70472489 130.650478,5.77040611 Z" id="Fill-4" fill="#FFFFFE" mask="url(#mask-2)"></path>
                        <path d="M182.663444,13.9531135 C186.295144,13.9531135 188.069211,15.7411485 188.069211,19.4030131 L188.069211,59 L176.835244,59 L176.835244,13.9531135 L182.663444,13.9531135 Z M182.663444,0.0649257642 C186.379989,0.0649257642 188.153544,1.93824017 188.069211,5.6001048 L188.069211,8.92110917 L176.835244,8.92110917 L176.835244,0.0649257642 L182.663444,0.0649257642 Z" id="Fill-5" fill="#FFFFFE" mask="url(#mask-2)"></path>
                        <path d="M219.104389,39.4910961 L219.104389,35.3191004 C216.485711,36.4264454 213.444856,37.3632314 210.151,38.044179 C205.674178,38.8962009 203.3936,41.0240655 203.3936,44.3455852 C203.647111,47.9213974 205.505511,49.6251834 209.052878,49.6251834 C215.303,49.6251834 219.104389,45.8782969 219.104389,39.4910961 Z M204.914156,24.6746245 L193.679933,24.6746245 C195.031567,16.3298603 200.859767,12.2418559 211.164789,12.2418559 C223.496367,12.2418559 229.747,16.3298603 230,24.6746245 L230,40.0025153 C230,52.4352838 222.567167,57.9704629 210.488589,58.8211965 C199.7619,59.6732183 192.329067,54.6492009 192.329067,44.6859301 C192.582067,33.8711528 200.353256,30.9762882 211.6713,29.8694585 C216.485711,29.2732751 218.935467,27.8253275 218.935467,25.3560873 C218.6817,22.80131 216.317044,21.5239214 211.6713,21.5239214 C207.7015,21.5239214 205.505511,22.5457293 204.914156,24.6746245 Z" id="Fill-6" fill="#FFFFFE" mask="url(#mask-2)"></path>
                    </g>
                    <path d="M145.803133,31.6649651 L145.803133,35.8372183 C148.421556,34.7296157 151.462411,33.7930873 154.756522,33.1118821 C159.233089,32.2601179 161.513667,30.1322533 161.513667,26.8107336 C161.260156,23.2346638 159.402011,21.5311354 155.854389,21.5311354 C149.604267,21.5311354 145.803133,25.2777642 145.803133,31.6649651 Z M159.993367,46.4816943 L171.227333,46.4816943 C169.8757,54.8264585 164.0475,58.9142052 153.742733,58.9142052 C141.411156,58.9142052 135.160522,54.8264585 134.907267,46.4816943 L134.907267,31.1538035 C134.907267,18.7210349 142.340356,13.1855983 154.418678,12.3348646 C165.145622,11.4831004 172.578456,16.5071179 172.578456,26.470131 C172.325456,37.2851659 164.554267,40.1797729 153.235967,41.2868603 C148.421556,41.8830437 145.972056,43.3309913 145.972056,45.7999738 C146.225567,48.3550087 148.590478,49.6321397 153.235967,49.6321397 C157.206022,49.6321397 159.402011,48.6105895 159.993367,46.4816943 Z" id="Fill-8" fill="#FFFFFE"></path>
                </g>
            </g>
        </g>
    </g>
</svg>