<?xml version="1.0" encoding="UTF-8"?>
<svg width="16px" height="16px" viewBox="0 0 16 16" version="1.1" xmlns="http://www.w3.org/2000/svg" xmlns:xlink="http://www.w3.org/1999/xlink">
    <!-- Generator: Sketch 52.4 (67378) - http://www.bohemiancoding.com/sketch -->
    <title>icon-TelegramActive</title>
    <desc>Created with Sketch.</desc>
    <g id="Page-1" stroke="none" stroke-width="1" fill="none" fill-rule="evenodd">
        <g id="Codeia---Shopping-Cart" transform="translate(-173.000000, -1734.000000)" fill="#57D284">
            <g id="Footer-Section-Copy" transform="translate(0.000000, 1505.000000)">
                <g id="icon-TelegramActive" transform="translate(173.000000, 229.000000)">
                    <path d="M-1.77635684e-15,-1.77635684e-15 L15.9905614,-1.77635684e-15 L15.9905614,15.9905614 L-1.77635684e-15,15.9905614 L-1.77635684e-15,-1.77635684e-15 Z M12.5910175,3.52982456 L1.89792982,7.69680702 C1.55157895,7.83178947 1.5725614,8.32880702 1.92908772,8.43407018 L4.64631579,9.23645614 L5.66038596,12.4542105 C5.76631579,12.7903158 6.19224561,12.8922105 6.43880702,12.6404561 L7.84368421,11.206 L10.6001754,13.2293333 C10.9375088,13.4769474 11.4179298,13.2929825 11.5035789,12.8834035 L13.3292281,4.15498246 C13.4186316,3.7274386 12.998,3.37122807 12.5910175,3.52982456 Z M11.250386,5.46687719 L6.28350877,9.85908772 C6.234,9.90287719 6.20249123,9.96347368 6.19512281,10.0291579 L6.00389474,11.7290877 C5.99764912,11.7845263 5.92007018,11.7918596 5.90350877,11.7385965 L5.11673684,9.20340351 C5.08070175,9.08733333 5.12768421,8.96157895 5.23094737,8.89754386 L11.0963158,5.25978947 C11.231193,5.17607018 11.3692982,5.36175439 11.250386,5.46687719 Z" id="Combined-Shape"></path>
                </g>
            </g>
        </g>
    </g>
</svg>